{"glyphs":{"0":{"ha":712,"x_min":51,"x_max":661,"o":"m 186 814 l 526 814 l 661 746 l 661 68 l 526 0 l 186 0 l 51 68 l 51 746 l 186 814 m 526 678 l 186 678 l 186 136 l 526 136 l 526 678 z "},"1":{"ha":237,"x_min":51,"x_max":186,"o":"m 51 0 l 51 746 l 186 814 l 186 0 l 51 0 z "},"2":{"ha":712,"x_min":51,"x_max":661,"o":"m 51 678 l 51 814 l 526 814 l 661 746 l 661 484 l 186 246 l 186 136 l 661 136 l 661 0 l 51 0 l 51 330 l 526 568 l 526 678 l 51 678 z "},"3":{"ha":695,"x_min":34,"x_max":644,"o":"m 509 136 l 509 343 l 425 511 l 509 678 l 34 678 l 34 814 l 644 814 l 644 646 l 576 511 l 644 375 l 644 68 l 509 0 l 34 0 l 34 136 l 509 136 z "},"4":{"ha":695,"x_min":34,"x_max":644,"o":"m 509 0 l 509 203 l 34 203 l 34 371 l 255 814 l 407 814 l 170 339 l 509 339 l 509 543 l 644 543 l 644 0 l 509 0 z "},"5":{"ha":712,"x_min":51,"x_max":661,"o":"m 526 136 l 526 407 l 51 407 l 51 814 l 661 814 l 661 678 l 186 678 l 186 543 l 661 543 l 661 68 l 526 0 l 51 0 l 51 136 l 526 136 z "},"6":{"ha":712,"x_min":51,"x_max":661,"o":"m 51 746 l 186 814 l 661 814 l 661 678 l 186 678 l 186 543 l 526 543 l 661 475 l 661 68 l 526 0 l 186 0 l 51 68 l 51 746 m 186 136 l 526 136 l 526 407 l 186 407 l 186 136 z "},"7":{"ha":678,"x_min":34,"x_max":644,"o":"m 170 0 l 509 678 l 34 678 l 34 814 l 644 814 l 644 646 l 321 0 l 170 0 z "},"8":{"ha":712,"x_min":51,"x_max":661,"o":"m 186 814 l 526 814 l 661 746 l 661 543 l 627 475 l 661 407 l 661 68 l 526 0 l 186 0 l 51 68 l 51 407 l 85 475 l 51 543 l 51 746 l 186 814 m 526 407 l 186 407 l 186 136 l 526 136 l 526 407 m 186 543 l 526 543 l 526 678 l 186 678 l 186 543 z "},"9":{"ha":712,"x_min":51,"x_max":661,"o":"m 661 68 l 526 0 l 51 0 l 51 136 l 526 136 l 526 271 l 186 271 l 51 339 l 51 746 l 186 814 l 526 814 l 661 746 l 661 68 m 526 678 l 186 678 l 186 407 l 526 407 l 526 678 z "},"\u0000":{"ha":0,"x_min":0,"x_max":0,"o":""}," ":{"ha":305,"x_min":0,"x_max":0,"o":""},"!":{"ha":237,"x_min":51,"x_max":186,"o":"m 51 203 l 51 814 l 186 814 l 186 203 l 51 203 m 51 0 l 51 136 l 186 136 l 186 0 l 51 0 z "},"\"":{"ha":441,"x_min":51,"x_max":390,"o":"m 254 678 l 254 949 l 390 949 l 390 678 l 254 678 m 51 678 l 51 949 l 186 949 l 186 678 l 51 678 z "},"#":{"ha":712,"x_min":51,"x_max":661,"o":"m 153 339 l 153 475 l 51 475 l 51 610 l 153 610 l 153 712 l 288 712 l 288 610 l 424 610 l 424 712 l 559 712 l 559 610 l 661 610 l 661 475 l 559 475 l 559 339 l 661 339 l 661 203 l 559 203 l 559 102 l 424 102 l 424 203 l 288 203 l 288 102 l 153 102 l 153 203 l 51 203 l 51 339 l 153 339 m 288 475 l 288 339 l 424 339 l 424 475 l 288 475 z "},"$":{"ha":712,"x_min":51,"x_max":661,"o":"m 186 678 l 186 568 l 661 330 l 661 68 l 526 0 l 424 0 l 424 -136 l 288 -136 l 288 0 l 51 0 l 51 136 l 526 136 l 526 246 l 51 484 l 51 746 l 186 814 l 288 814 l 288 949 l 424 949 l 424 814 l 661 814 l 661 678 l 186 678 z "},"%":{"ha":661,"x_min":51,"x_max":610,"o":"m 51 0 l 458 814 l 610 814 l 203 0 l 51 0 m 51 678 l 51 814 l 186 814 l 186 678 l 51 678 m 474 0 l 474 136 l 610 136 l 610 0 l 474 0 z "},"&":{"ha":661,"x_min":51,"x_max":627,"o":"m 186 814 l 424 814 l 424 576 l 559 509 l 559 136 l 627 136 l 627 0 l 559 0 l 559 -68 l 424 -68 l 424 0 l 186 0 l 51 68 l 51 746 l 186 814 m 424 441 l 186 441 l 186 136 l 424 136 l 424 441 m 288 678 l 186 678 l 186 576 l 288 576 l 288 678 z "},"'":{"ha":237,"x_min":51,"x_max":186,"o":"m 51 678 l 51 949 l 186 949 l 186 678 l 51 678 z "},"(":{"ha":237,"x_min":51,"x_max":322,"o":"m 51 -32 l 51 846 l 170 1085 l 322 1085 l 186 814 l 186 0 l 322 -271 l 170 -271 l 51 -32 z "},")":{"ha":237,"x_min":-85,"x_max":186,"o":"m 67 -271 l -85 -271 l 51 0 l 51 814 l -85 1085 l 67 1085 l 186 846 l 186 -32 l 67 -271 z "},"*":{"ha":576,"x_min":34,"x_max":543,"o":"m 288 746 l 357 865 l 474 797 l 406 678 l 543 678 l 543 543 l 406 543 l 474 424 l 357 356 l 288 475 l 220 356 l 102 424 l 171 543 l 34 543 l 34 678 l 171 678 l 102 797 l 220 865 l 288 746 z "},"+":{"ha":678,"x_min":34,"x_max":644,"o":"m 407 339 l 407 102 l 271 102 l 271 339 l 34 339 l 34 475 l 271 475 l 271 712 l 407 712 l 407 475 l 644 475 l 644 339 l 407 339 z "},",":{"ha":237,"x_min":51,"x_max":186,"o":"m 186 136 l 186 -68 l 51 -136 l 51 136 l 186 136 z "},"-":{"ha":373,"x_min":34,"x_max":339,"o":"m 34 339 l 34 475 l 339 475 l 339 339 l 34 339 z "},".":{"ha":237,"x_min":51,"x_max":186,"o":"m 51 0 l 51 136 l 186 136 l 186 0 l 51 0 z "},"/":{"ha":593,"x_min":17,"x_max":576,"o":"m 17 0 l 424 814 l 576 814 l 169 0 l 17 0 z "},":":{"ha":237,"x_min":51,"x_max":186,"o":"m 51 0 l 51 136 l 186 136 l 186 0 l 51 0 m 51 543 l 51 678 l 186 678 l 186 543 l 51 543 z "},";":{"ha":237,"x_min":51,"x_max":186,"o":"m 186 136 l 186 -68 l 51 -136 l 51 136 l 186 136 m 51 543 l 51 678 l 186 678 l 186 543 l 51 543 z "},"<":{"ha":475,"x_min":34,"x_max":441,"o":"m 441 526 l 201 407 l 441 288 l 441 136 l 34 339 l 34 475 l 441 678 l 441 526 z "},"=":{"ha":475,"x_min":34,"x_max":441,"o":"m 34 441 l 34 576 l 441 576 l 441 441 l 34 441 m 34 237 l 34 373 l 441 373 l 441 237 l 34 237 z "},">":{"ha":475,"x_min":34,"x_max":441,"o":"m 34 678 l 441 475 l 441 339 l 34 136 l 34 288 l 273 407 l 34 526 l 34 678 z "},"?":{"ha":695,"x_min":34,"x_max":644,"o":"m 170 0 l 170 136 l 305 136 l 305 0 l 170 0 m 34 678 l 34 814 l 509 814 l 644 746 l 644 484 l 305 314 l 305 203 l 170 203 l 170 398 l 509 568 l 509 678 l 34 678 z "},"@":{"ha":712,"x_min":51,"x_max":661,"o":"m 661 136 l 661 68 l 526 0 l 186 0 l 51 68 l 51 746 l 186 814 l 526 814 l 661 746 l 661 271 l 322 271 l 322 543 l 526 543 l 526 678 l 186 678 l 186 136 l 661 136 z "},"A":{"ha":712,"x_min":51,"x_max":661,"o":"m 661 0 l 526 0 l 526 203 l 186 203 l 186 0 l 51 0 l 51 746 l 186 814 l 526 814 l 661 746 l 661 0 m 526 678 l 186 678 l 186 339 l 526 339 l 526 678 z "},"B":{"ha":712,"x_min":51,"x_max":661,"o":"m 526 814 l 661 746 l 661 610 l 593 475 l 661 339 l 661 68 l 526 0 l 51 0 l 51 814 l 526 814 m 475 407 l 186 407 l 186 136 l 526 136 l 526 307 l 475 407 m 186 543 l 475 543 l 526 642 l 526 678 l 186 678 l 186 543 z "},"C":{"ha":661,"x_min":51,"x_max":627,"o":"m 627 136 l 627 0 l 186 0 l 51 68 l 51 746 l 186 814 l 627 814 l 627 678 l 186 678 l 186 136 l 627 136 z "},"D":{"ha":712,"x_min":51,"x_max":661,"o":"m 186 678 l 186 136 l 390 136 l 526 203 l 526 610 l 390 678 l 186 678 m 51 0 l 51 814 l 422 814 l 661 694 l 661 119 l 422 0 l 51 0 z "},"E":{"ha":695,"x_min":51,"x_max":661,"o":"m 661 136 l 661 0 l 51 0 l 51 814 l 661 814 l 661 678 l 186 678 l 186 543 l 458 543 l 458 407 l 186 407 l 186 136 l 661 136 z "},"F":{"ha":695,"x_min":51,"x_max":661,"o":"m 51 0 l 51 814 l 661 814 l 661 678 l 186 678 l 186 543 l 458 543 l 458 407 l 186 407 l 186 0 l 51 0 z "},"G":{"ha":712,"x_min":51,"x_max":661,"o":"m 526 136 l 526 407 l 661 407 l 661 0 l 186 0 l 51 68 l 51 746 l 186 814 l 661 814 l 661 678 l 186 678 l 186 136 l 526 136 z "},"H":{"ha":712,"x_min":51,"x_max":661,"o":"m 51 814 l 186 814 l 186 543 l 526 543 l 526 814 l 661 814 l 661 0 l 526 0 l 526 407 l 186 407 l 186 0 l 51 0 l 51 814 z "},"I":{"ha":237,"x_min":51,"x_max":186,"o":"m 51 0 l 51 814 l 186 814 l 186 0 l 51 0 z "},"J":{"ha":627,"x_min":34,"x_max":576,"o":"m 441 203 l 441 814 l 576 814 l 576 119 l 337 0 l 34 0 l 34 136 l 305 136 l 441 203 z "},"K":{"ha":712,"x_min":51,"x_max":695,"o":"m 186 339 l 186 0 l 51 0 l 51 814 l 186 814 l 186 475 l 374 475 l 543 814 l 695 814 l 492 407 l 695 0 l 543 0 l 374 339 l 186 339 z "},"L":{"ha":661,"x_min":51,"x_max":627,"o":"m 627 136 l 627 0 l 51 0 l 51 814 l 186 814 l 186 136 l 627 136 z "},"M":{"ha":814,"x_min":51,"x_max":763,"o":"m 407 352 l 637 814 l 763 814 l 763 0 l 627 0 l 627 490 l 407 49 l 186 490 l 186 0 l 51 0 l 51 814 l 176 814 l 407 352 z "},"N":{"ha":712,"x_min":51,"x_max":661,"o":"m 538 0 l 186 545 l 186 0 l 51 0 l 51 814 l 174 814 l 526 269 l 526 814 l 661 814 l 661 0 l 538 0 z "},"O":{"ha":712,"x_min":51,"x_max":661,"o":"m 186 814 l 526 814 l 661 746 l 661 68 l 526 0 l 186 0 l 51 68 l 51 746 l 186 814 m 526 678 l 186 678 l 186 136 l 526 136 l 526 678 z "},"P":{"ha":712,"x_min":51,"x_max":661,"o":"m 526 814 l 661 746 l 661 271 l 526 203 l 186 203 l 186 0 l 51 0 l 51 814 l 526 814 m 526 678 l 186 678 l 186 339 l 526 339 l 526 678 z "},"Q":{"ha":712,"x_min":51,"x_max":661,"o":"m 186 814 l 526 814 l 661 746 l 661 68 l 526 0 l 432 0 l 500 -136 l 348 -136 l 280 0 l 186 0 l 51 68 l 51 746 l 186 814 m 526 678 l 186 678 l 186 136 l 526 136 l 526 678 z "},"R":{"ha":712,"x_min":51,"x_max":661,"o":"m 526 407 l 526 678 l 186 678 l 186 407 l 526 407 m 374 271 l 186 271 l 186 0 l 51 0 l 51 814 l 526 814 l 661 746 l 661 339 l 526 271 l 661 0 l 509 0 l 374 271 z "},"S":{"ha":712,"x_min":51,"x_max":661,"o":"m 186 678 l 186 568 l 661 330 l 661 68 l 526 0 l 51 0 l 51 136 l 526 136 l 526 246 l 51 484 l 51 746 l 186 814 l 661 814 l 661 678 l 186 678 z "},"T":{"ha":678,"x_min":34,"x_max":644,"o":"m 407 678 l 407 0 l 271 0 l 271 678 l 34 678 l 34 814 l 644 814 l 644 678 l 407 678 z "},"U":{"ha":712,"x_min":51,"x_max":661,"o":"m 526 814 l 661 814 l 661 68 l 526 0 l 186 0 l 51 68 l 51 814 l 186 814 l 186 136 l 526 136 l 526 814 z "},"V":{"ha":712,"x_min":17,"x_max":695,"o":"m 552 814 l 695 814 l 416 0 l 296 0 l 17 814 l 160 814 l 356 243 l 552 814 z "},"W":{"ha":916,"x_min":17,"x_max":899,"o":"m 458 492 l 339 0 l 213 0 l 17 814 l 157 814 l 276 317 l 395 814 l 520 814 l 640 317 l 759 814 l 899 814 l 703 0 l 576 0 l 458 492 z "},"X":{"ha":712,"x_min":17,"x_max":695,"o":"m 178 0 l 17 0 l 275 407 l 17 814 l 178 814 l 356 533 l 534 814 l 695 814 l 437 407 l 695 0 l 534 0 l 356 281 l 178 0 z "},"Y":{"ha":712,"x_min":51,"x_max":661,"o":"m 51 814 l 186 814 l 186 491 l 356 406 l 526 491 l 526 814 l 661 814 l 661 407 l 424 288 l 424 0 l 288 0 l 288 288 l 51 407 l 51 814 z "},"Z":{"ha":712,"x_min":51,"x_max":661,"o":"m 51 678 l 51 814 l 661 814 l 661 646 l 204 136 l 661 136 l 661 0 l 51 0 l 51 168 l 508 678 l 51 678 z "},"[":{"ha":237,"x_min":51,"x_max":322,"o":"m 322 -136 l 322 -271 l 51 -271 l 51 1085 l 322 1085 l 322 949 l 186 949 l 186 -136 l 322 -136 z "},"\\":{"ha":593,"x_min":17,"x_max":576,"o":"m 424 0 l 17 814 l 169 814 l 576 0 l 424 0 z "},"]":{"ha":237,"x_min":-85,"x_max":186,"o":"m 51 -136 l 51 949 l -85 949 l -85 1085 l 186 1085 l 186 -271 l -85 -271 l -85 -136 l 51 -136 z "},"^":{"ha":712,"x_min":51,"x_max":661,"o":"m 661 746 l 661 594 l 356 747 l 51 594 l 51 746 l 356 899 l 661 746 z "},"_":{"ha":678,"x_min":34,"x_max":644,"o":"m 34 0 l 34 136 l 644 136 l 644 0 l 34 0 z "},"`":{"ha":271,"x_min":34,"x_max":237,"o":"m 34 848 l 237 746 l 237 594 l 34 696 l 34 848 z "},"a":{"ha":610,"x_min":51,"x_max":559,"o":"m 186 678 l 559 678 l 559 0 l 186 0 l 51 68 l 51 610 l 186 678 m 424 543 l 186 543 l 186 136 l 424 136 l 424 543 z "},"b":{"ha":610,"x_min":51,"x_max":559,"o":"m 559 610 l 559 68 l 424 0 l 51 0 l 51 814 l 186 814 l 186 678 l 424 678 l 559 610 m 186 136 l 424 136 l 424 543 l 186 543 l 186 136 z "},"c":{"ha":593,"x_min":51,"x_max":559,"o":"m 559 136 l 559 0 l 186 0 l 51 68 l 51 610 l 186 678 l 559 678 l 559 543 l 186 543 l 186 136 l 559 136 z "},"d":{"ha":610,"x_min":51,"x_max":559,"o":"m 186 678 l 425 678 l 424 814 l 559 814 l 559 0 l 186 0 l 51 68 l 51 610 l 186 678 m 424 543 l 186 543 l 186 136 l 424 136 l 424 543 z "},"e":{"ha":610,"x_min":51,"x_max":559,"o":"m 559 136 l 559 0 l 186 0 l 51 68 l 51 610 l 186 678 l 424 678 l 559 610 l 559 271 l 186 271 l 186 136 l 559 136 m 424 407 l 424 543 l 186 543 l 186 407 l 424 407 z "},"f":{"ha":348,"x_min":51,"x_max":322,"o":"m 186 271 l 186 -170 l 51 -170 l 51 746 l 186 814 l 322 814 l 322 678 l 186 678 l 186 407 l 322 407 l 322 271 l 186 271 z "},"g":{"ha":610,"x_min":51,"x_max":559,"o":"m 51 68 l 51 610 l 186 678 l 559 678 l 559 -136 l 424 -203 l 51 -203 l 51 -68 l 424 -68 l 424 0 l 186 0 l 51 68 m 424 543 l 186 543 l 186 136 l 424 136 l 424 543 z "},"h":{"ha":610,"x_min":51,"x_max":559,"o":"m 186 0 l 51 0 l 51 814 l 186 814 l 186 678 l 424 678 l 559 610 l 559 0 l 424 0 l 424 543 l 186 543 l 186 0 z "},"i":{"ha":237,"x_min":51,"x_max":186,"o":"m 51 746 l 51 882 l 186 882 l 186 746 l 51 746 m 51 0 l 51 678 l 186 678 l 186 0 l 51 0 z "},"j":{"ha":237,"x_min":51,"x_max":186,"o":"m 51 678 l 186 678 l 186 -102 l 51 -170 l 51 678 m 51 746 l 51 882 l 186 882 l 186 746 l 51 746 z "},"k":{"ha":610,"x_min":51,"x_max":593,"o":"m 441 0 l 306 271 l 186 271 l 186 0 l 51 0 l 51 814 l 186 814 l 186 407 l 306 407 l 441 678 l 593 678 l 424 339 l 593 0 l 441 0 z "},"l":{"ha":237,"x_min":51,"x_max":186,"o":"m 51 0 l 51 814 l 186 814 l 186 0 l 51 0 z "},"m":{"ha":983,"x_min":51,"x_max":932,"o":"m 424 543 l 186 543 l 186 0 l 51 0 l 51 678 l 797 678 l 932 610 l 932 0 l 797 0 l 797 543 l 559 543 l 559 0 l 424 0 l 424 543 z "},"n":{"ha":610,"x_min":51,"x_max":559,"o":"m 424 543 l 186 543 l 186 0 l 51 0 l 51 678 l 424 678 l 559 610 l 559 0 l 424 0 l 424 543 z "},"o":{"ha":610,"x_min":51,"x_max":559,"o":"m 186 678 l 424 678 l 559 610 l 559 68 l 424 0 l 186 0 l 51 68 l 51 610 l 186 678 m 424 543 l 186 543 l 186 136 l 424 136 l 424 543 z "},"p":{"ha":610,"x_min":51,"x_max":559,"o":"m 424 678 l 559 610 l 559 68 l 424 0 l 186 0 l 186 -203 l 51 -203 l 51 678 l 424 678 m 424 543 l 186 543 l 186 136 l 424 136 l 424 543 z "},"q":{"ha":610,"x_min":51,"x_max":559,"o":"m 559 678 l 559 -136 l 424 -203 l 424 0 l 186 0 l 51 68 l 51 610 l 186 678 l 559 678 m 186 136 l 424 136 l 424 543 l 186 543 l 186 136 z "},"r":{"ha":543,"x_min":51,"x_max":526,"o":"m 186 543 l 186 0 l 51 0 l 51 610 l 186 678 l 526 678 l 526 543 l 186 543 z "},"s":{"ha":610,"x_min":51,"x_max":559,"o":"m 186 543 l 186 475 l 559 288 l 559 68 l 424 0 l 51 0 l 51 136 l 424 136 l 424 204 l 51 391 l 51 610 l 186 678 l 559 678 l 559 543 l 186 543 z "},"t":{"ha":441,"x_min":17,"x_max":424,"o":"m 288 678 l 424 678 l 424 543 l 288 543 l 288 0 l 153 0 l 153 543 l 17 543 l 17 678 l 153 678 l 153 814 l 288 814 l 288 678 z "},"u":{"ha":610,"x_min":51,"x_max":559,"o":"m 424 678 l 559 678 l 559 68 l 424 0 l 186 0 l 51 68 l 51 678 l 186 678 l 186 136 l 424 136 l 424 678 z "},"v":{"ha":610,"x_min":17,"x_max":593,"o":"m 450 678 l 593 678 l 366 0 l 245 0 l 17 678 l 160 678 l 305 247 l 450 678 z "},"w":{"ha":780,"x_min":17,"x_max":763,"o":"m 390 354 l 305 0 l 179 0 l 17 678 l 157 678 l 242 319 l 328 678 l 452 678 l 538 319 l 623 678 l 763 678 l 601 0 l 475 0 l 390 354 z "},"x":{"ha":610,"x_min":17,"x_max":593,"o":"m 305 210 l 176 0 l 17 0 l 226 339 l 17 678 l 176 678 l 305 469 l 434 678 l 593 678 l 385 339 l 593 0 l 434 0 l 305 210 z "},"y":{"ha":610,"x_min":51,"x_max":559,"o":"m 424 678 l 559 678 l 559 -136 l 424 -203 l 51 -203 l 51 -68 l 424 -68 l 424 0 l 186 0 l 51 68 l 51 678 l 186 678 l 186 136 l 424 136 l 424 678 z "},"z":{"ha":610,"x_min":51,"x_max":559,"o":"m 51 543 l 51 678 l 559 678 l 559 511 l 207 136 l 559 136 l 559 0 l 51 0 l 51 168 l 404 543 l 51 543 z "},"{":{"ha":389,"x_min":17,"x_max":372,"o":"m 17 407 l 220 814 l 372 814 l 169 407 l 372 0 l 220 0 l 17 407 z "},"|":{"ha":237,"x_min":51,"x_max":186,"o":"m 51 -271 l 51 1085 l 186 1085 l 186 -271 l 51 -271 z "},"}":{"ha":389,"x_min":17,"x_max":372,"o":"m 169 0 l 17 0 l 220 407 l 17 814 l 169 814 l 372 407 l 169 0 z "},"~":{"ha":712,"x_min":51,"x_max":661,"o":"m 458 746 l 661 848 l 661 696 l 458 594 l 254 696 l 51 594 l 51 746 l 254 848 l 458 746 z "},"¡":{"ha":237,"x_min":51,"x_max":186,"o":"m 51 610 l 51 0 l 186 0 l 186 610 l 51 610 m 51 814 l 51 678 l 186 678 l 186 814 l 51 814 z "},"¢":{"ha":661,"x_min":51,"x_max":627,"o":"m 441 0 l 441 -136 l 305 -136 l 305 0 l 186 0 l 51 68 l 51 746 l 186 814 l 305 814 l 305 949 l 441 949 l 441 814 l 627 814 l 627 678 l 186 678 l 186 136 l 627 136 l 627 0 l 441 0 z "},"£":{"ha":678,"x_min":34,"x_max":644,"o":"m 102 576 l 102 746 l 237 814 l 644 814 l 644 678 l 237 678 l 237 576 l 441 576 l 441 441 l 237 441 l 237 136 l 644 136 l 644 0 l 102 0 l 102 441 l 34 441 l 34 576 l 102 576 z "},"¤":{"ha":712,"x_min":51,"x_max":661,"o":"m 237 136 l 186 36 l 186 0 l 51 0 l 51 68 l 119 203 l 51 339 l 51 475 l 119 610 l 51 746 l 51 814 l 186 814 l 186 778 l 237 678 l 475 678 l 526 778 l 526 814 l 661 814 l 661 746 l 593 610 l 661 475 l 661 339 l 593 203 l 661 68 l 661 0 l 526 0 l 526 36 l 475 136 l 237 136 m 186 371 l 237 271 l 475 271 l 526 371 l 526 443 l 475 543 l 237 543 l 186 443 l 186 371 z "},"¥":{"ha":712,"x_min":51,"x_max":661,"o":"m 288 271 l 288 365 l 51 484 l 51 814 l 186 814 l 186 568 l 356 483 l 526 568 l 526 814 l 661 814 l 661 484 l 424 365 l 424 271 l 559 271 l 559 136 l 424 136 l 424 0 l 288 0 l 288 136 l 153 136 l 153 271 l 288 271 z "},"¦":{"ha":237,"x_min":51,"x_max":186,"o":"m 51 -271 l 51 339 l 186 339 l 186 -271 l 51 -271 m 51 475 l 51 1085 l 186 1085 l 186 475 l 51 475 z "},"§":{"ha":712,"x_min":51,"x_max":661,"o":"m 186 814 l 186 753 l 661 515 l 661 -68 l 526 -136 l 51 -136 l 51 0 l 526 0 l 526 61 l 51 298 l 51 882 l 186 949 l 661 949 l 661 814 l 186 814 m 186 602 l 186 382 l 526 212 l 526 432 l 186 602 z "},"¨":{"ha":712,"x_min":51,"x_max":661,"o":"m 51 882 l 51 1017 l 186 1017 l 186 882 l 51 882 m 526 882 l 526 1017 l 661 1017 l 661 882 l 526 882 z "},"©":{"ha":916,"x_min":51,"x_max":865,"o":"m 186 814 l 729 814 l 865 746 l 865 68 l 729 0 l 186 0 l 51 68 l 51 746 l 186 814 m 661 339 l 661 203 l 390 203 l 254 271 l 254 543 l 390 610 l 661 610 l 661 475 l 390 475 l 390 339 l 661 339 m 729 678 l 186 678 l 186 136 l 729 136 l 729 678 z "},"ª":{"ha":509,"x_min":51,"x_max":458,"o":"m 458 305 l 322 305 l 322 407 l 186 407 l 186 305 l 51 305 l 51 746 l 186 814 l 322 814 l 458 746 l 458 305 m 322 678 l 186 678 l 186 543 l 322 543 l 322 678 z "},"«":{"ha":515,"x_min":34,"x_max":515,"o":"m 34 407 l 136 610 l 288 610 l 186 407 l 288 203 l 136 203 l 34 407 m 261 407 l 363 610 l 515 610 l 413 407 l 515 203 l 363 203 l 261 407 z "},"¬":{"ha":695,"x_min":34,"x_max":644,"o":"m 509 339 l 34 339 l 34 475 l 644 475 l 644 0 l 509 0 l 509 339 z "},"®":{"ha":916,"x_min":51,"x_max":865,"o":"m 186 814 l 729 814 l 865 746 l 865 68 l 729 0 l 186 0 l 51 68 l 51 746 l 186 814 m 729 678 l 186 678 l 186 136 l 729 136 l 729 678 m 526 407 l 526 475 l 390 475 l 390 407 l 526 407 m 526 271 l 390 271 l 390 203 l 254 203 l 254 610 l 526 610 l 661 543 l 661 407 l 627 339 l 661 271 l 661 203 l 526 203 l 526 271 z "},"¯":{"ha":712,"x_min":186,"x_max":526,"o":"m 186 882 l 186 1017 l 526 1017 l 526 882 l 186 882 z "},"°":{"ha":509,"x_min":51,"x_max":458,"o":"m 186 814 l 322 814 l 458 746 l 458 475 l 322 407 l 186 407 l 51 475 l 51 746 l 186 814 m 322 678 l 186 678 l 186 543 l 322 543 l 322 678 z "},"±":{"ha":678,"x_min":34,"x_max":644,"o":"m 407 441 l 407 203 l 271 203 l 271 441 l 34 441 l 34 576 l 271 576 l 271 814 l 407 814 l 407 576 l 644 576 l 644 441 l 407 441 m 34 0 l 34 136 l 644 136 l 644 0 l 34 0 z "},"²":{"ha":509,"x_min":51,"x_max":458,"o":"m 51 678 l 51 814 l 322 814 l 458 746 l 458 585 l 186 450 l 186 441 l 458 441 l 458 305 l 51 305 l 51 534 l 322 669 l 322 678 l 51 678 z "},"³":{"ha":509,"x_min":51,"x_max":458,"o":"m 322 441 l 322 479 l 272 578 l 322 678 l 51 678 l 51 814 l 458 814 l 458 646 l 424 578 l 458 511 l 458 373 l 322 305 l 51 305 l 51 441 l 322 441 z "},"´":{"ha":712,"x_min":254,"x_max":458,"o":"m 458 933 l 254 831 l 254 983 l 458 1085 l 458 933 z "},"µ":{"ha":712,"x_min":51,"x_max":661,"o":"m 526 814 l 661 814 l 661 68 l 526 0 l 186 0 l 186 -136 l 51 -136 l 51 814 l 186 814 l 186 136 l 526 136 l 526 814 z "},"¶":{"ha":712,"x_min":51,"x_max":661,"o":"m 526 678 l 390 678 l 390 0 l 254 0 l 254 271 l 186 271 l 51 339 l 51 746 l 186 814 l 661 814 l 661 0 l 526 0 l 526 678 z "},"·":{"ha":237,"x_min":51,"x_max":186,"o":"m 51 339 l 51 475 l 186 475 l 186 339 l 51 339 z "},"¸":{"ha":712,"x_min":288,"x_max":424,"o":"m 288 -203 l 288 0 l 424 -68 l 424 -203 l 288 -203 z "},"¹":{"ha":237,"x_min":51,"x_max":186,"o":"m 51 305 l 51 746 l 186 814 l 186 305 l 51 305 z "},"º":{"ha":509,"x_min":51,"x_max":458,"o":"m 186 814 l 322 814 l 458 746 l 458 373 l 322 305 l 186 305 l 51 373 l 51 746 l 186 814 m 322 678 l 186 678 l 186 441 l 322 441 l 322 678 z "},"»":{"ha":515,"x_min":34,"x_max":515,"o":"m 186 203 l 34 203 l 136 407 l 34 610 l 186 610 l 288 407 l 186 203 m 413 203 l 261 203 l 363 407 l 261 610 l 413 610 l 515 407 l 413 203 z "},"¼":{"ha":509,"x_min":51,"x_max":458,"o":"m 322 -271 l 322 -170 l 51 -170 l 51 -2 l 170 237 l 458 237 l 458 102 l 254 102 l 186 -34 l 458 -34 l 458 -271 l 322 -271 m 51 576 l 51 1017 l 186 1085 l 186 576 l 51 576 m 458 467 l 51 263 l 51 415 l 458 618 l 458 467 z "},"½":{"ha":509,"x_min":51,"x_max":458,"o":"m 51 576 l 51 1017 l 186 1085 l 186 576 l 51 576 m 458 500 l 51 297 l 51 449 l 458 652 l 458 500 m 51 102 l 51 237 l 322 237 l 458 170 l 458 9 l 186 -127 l 186 -136 l 458 -136 l 458 -271 l 51 -271 l 51 -43 l 322 93 l 322 102 l 51 102 z "},"¾":{"ha":509,"x_min":51,"x_max":458,"o":"m 322 -271 l 322 -170 l 51 -170 l 51 -2 l 170 237 l 458 237 l 458 102 l 254 102 l 186 -34 l 458 -34 l 458 -271 l 322 -271 m 458 441 l 51 237 l 51 389 l 458 593 l 458 441 m 322 712 l 322 750 l 272 850 l 322 949 l 51 949 l 51 1085 l 458 1085 l 458 918 l 424 850 l 458 782 l 458 644 l 322 576 l 51 576 l 51 712 l 322 712 z "},"¿":{"ha":695,"x_min":51,"x_max":661,"o":"m 526 814 l 526 678 l 390 678 l 390 814 l 526 814 m 661 136 l 661 0 l 186 0 l 51 68 l 51 330 l 390 500 l 390 610 l 526 610 l 526 416 l 186 246 l 186 136 l 661 136 z "},"À":{"ha":712,"x_min":51,"x_max":661,"o":"m 661 0 l 526 0 l 526 203 l 186 203 l 186 0 l 51 0 l 51 746 l 186 814 l 526 814 l 661 746 l 661 0 m 526 678 l 186 678 l 186 339 l 526 339 l 526 678 m 254 1085 l 458 983 l 458 831 l 254 933 l 254 1085 z "},"Á":{"ha":712,"x_min":51,"x_max":661,"o":"m 661 0 l 526 0 l 526 203 l 186 203 l 186 0 l 51 0 l 51 746 l 186 814 l 526 814 l 661 746 l 661 0 m 526 678 l 186 678 l 186 339 l 526 339 l 526 678 m 458 933 l 254 831 l 254 983 l 458 1085 l 458 933 z "},"Â":{"ha":712,"x_min":51,"x_max":661,"o":"m 661 0 l 526 0 l 526 203 l 186 203 l 186 0 l 51 0 l 51 746 l 186 814 l 526 814 l 661 746 l 661 0 m 526 678 l 186 678 l 186 339 l 526 339 l 526 678 m 526 1000 l 526 848 l 356 933 l 186 848 l 186 1000 l 356 1085 l 526 1000 z "},"Ã":{"ha":712,"x_min":51,"x_max":661,"o":"m 661 0 l 526 0 l 526 203 l 186 203 l 186 0 l 51 0 l 51 746 l 186 814 l 526 814 l 661 746 l 661 0 m 526 678 l 186 678 l 186 339 l 526 339 l 526 678 m 424 1000 l 559 1067 l 559 916 l 424 848 l 288 916 l 153 848 l 153 1000 l 288 1067 l 424 1000 z "},"Ä":{"ha":712,"x_min":51,"x_max":661,"o":"m 661 0 l 526 0 l 526 203 l 186 203 l 186 0 l 51 0 l 51 746 l 186 814 l 526 814 l 661 746 l 661 0 m 526 678 l 186 678 l 186 339 l 526 339 l 526 678 m 51 882 l 51 1017 l 186 1017 l 186 882 l 51 882 m 526 882 l 526 1017 l 661 1017 l 661 882 l 526 882 z "},"Å":{"ha":712,"x_min":51,"x_max":661,"o":"m 661 0 l 526 0 l 526 203 l 186 203 l 186 0 l 51 0 l 51 746 l 186 814 l 526 814 l 661 746 l 661 0 m 526 678 l 186 678 l 186 339 l 526 339 l 526 678 z "},"Æ":{"ha":1170,"x_min":51,"x_max":1136,"o":"m 526 678 l 186 678 l 186 339 l 526 339 l 526 678 m 526 203 l 186 203 l 186 0 l 51 0 l 51 746 l 186 814 l 1136 814 l 1136 678 l 661 678 l 661 543 l 932 543 l 932 407 l 661 407 l 661 136 l 1136 136 l 1136 0 l 526 0 l 526 203 z "},"Ç":{"ha":661,"x_min":51,"x_max":627,"o":"m 627 136 l 627 0 l 466 0 l 398 -136 l 246 -136 l 314 0 l 186 0 l 51 68 l 51 746 l 186 814 l 627 814 l 627 678 l 186 678 l 186 136 l 627 136 z "},"È":{"ha":695,"x_min":51,"x_max":661,"o":"m 661 136 l 661 0 l 51 0 l 51 814 l 661 814 l 661 678 l 186 678 l 186 543 l 458 543 l 458 407 l 186 407 l 186 136 l 661 136 m 254 1085 l 458 983 l 458 831 l 254 933 l 254 1085 z "},"É":{"ha":695,"x_min":51,"x_max":661,"o":"m 661 136 l 661 0 l 51 0 l 51 814 l 661 814 l 661 678 l 186 678 l 186 543 l 458 543 l 458 407 l 186 407 l 186 136 l 661 136 m 458 933 l 254 831 l 254 983 l 458 1085 l 458 933 z "},"Ê":{"ha":695,"x_min":51,"x_max":661,"o":"m 661 136 l 661 0 l 51 0 l 51 814 l 661 814 l 661 678 l 186 678 l 186 543 l 458 543 l 458 407 l 186 407 l 186 136 l 661 136 m 526 1000 l 526 848 l 356 933 l 186 848 l 186 1000 l 356 1085 l 526 1000 z "},"Ë":{"ha":695,"x_min":51,"x_max":661,"o":"m 661 136 l 661 0 l 51 0 l 51 814 l 661 814 l 661 678 l 186 678 l 186 543 l 458 543 l 458 407 l 186 407 l 186 136 l 661 136 m 51 882 l 51 1017 l 186 1017 l 186 882 l 51 882 m 526 882 l 526 1017 l 661 1017 l 661 882 l 526 882 z "},"Ì":{"ha":237,"x_min":17,"x_max":220,"o":"m 51 0 l 51 814 l 186 814 l 186 0 l 51 0 m 17 1085 l 220 983 l 220 831 l 17 933 l 17 1085 z "},"Í":{"ha":237,"x_min":17,"x_max":220,"o":"m 51 0 l 51 814 l 186 814 l 186 0 l 51 0 m 220 933 l 17 831 l 17 983 l 220 1085 l 220 933 z "},"Î":{"ha":237,"x_min":-51,"x_max":288,"o":"m 51 0 l 51 814 l 186 814 l 186 0 l 51 0 m 288 1000 l 288 848 l 119 933 l -51 848 l -51 1000 l 119 1085 l 288 1000 z "},"Ï":{"ha":237,"x_min":-58,"x_max":295,"o":"m 51 0 l 51 814 l 186 814 l 186 0 l 51 0 m -58 882 l -58 1017 l 78 1017 l 78 882 l -58 882 m 159 882 l 159 1017 l 295 1017 l 295 882 l 159 882 z "},"Ð":{"ha":712,"x_min":51,"x_max":661,"o":"m 526 814 l 661 746 l 661 68 l 526 0 l 51 0 l 51 814 l 526 814 m 186 339 l 186 136 l 526 136 l 526 678 l 186 678 l 186 475 l 356 475 l 356 339 l 186 339 z "},"Ñ":{"ha":712,"x_min":51,"x_max":661,"o":"m 538 0 l 186 545 l 186 0 l 51 0 l 51 814 l 174 814 l 526 269 l 526 814 l 661 814 l 661 0 l 538 0 m 424 1000 l 559 1067 l 559 916 l 424 848 l 288 916 l 153 848 l 153 1000 l 288 1067 l 424 1000 z "},"Ò":{"ha":712,"x_min":51,"x_max":661,"o":"m 186 814 l 526 814 l 661 746 l 661 68 l 526 0 l 186 0 l 51 68 l 51 746 l 186 814 m 526 678 l 186 678 l 186 136 l 526 136 l 526 678 m 254 1085 l 458 983 l 458 831 l 254 933 l 254 1085 z "},"Ó":{"ha":712,"x_min":51,"x_max":661,"o":"m 186 814 l 526 814 l 661 746 l 661 68 l 526 0 l 186 0 l 51 68 l 51 746 l 186 814 m 526 678 l 186 678 l 186 136 l 526 136 l 526 678 m 458 933 l 254 831 l 254 983 l 458 1085 l 458 933 z "},"Ô":{"ha":712,"x_min":51,"x_max":661,"o":"m 186 814 l 526 814 l 661 746 l 661 68 l 526 0 l 186 0 l 51 68 l 51 746 l 186 814 m 526 678 l 186 678 l 186 136 l 526 136 l 526 678 m 526 1000 l 526 848 l 356 933 l 186 848 l 186 1000 l 356 1085 l 526 1000 z "},"Õ":{"ha":712,"x_min":51,"x_max":661,"o":"m 186 814 l 526 814 l 661 746 l 661 68 l 526 0 l 186 0 l 51 68 l 51 746 l 186 814 m 526 678 l 186 678 l 186 136 l 526 136 l 526 678 m 424 1000 l 559 1067 l 559 916 l 424 848 l 288 916 l 153 848 l 153 1000 l 288 1067 l 424 1000 z "},"Ö":{"ha":712,"x_min":51,"x_max":661,"o":"m 186 814 l 526 814 l 661 746 l 661 68 l 526 0 l 186 0 l 51 68 l 51 746 l 186 814 m 526 678 l 186 678 l 186 136 l 526 136 l 526 678 m 51 882 l 51 1017 l 186 1017 l 186 882 l 51 882 m 526 882 l 526 1017 l 661 1017 l 661 882 l 526 882 z "},"×":{"ha":509,"x_min":51,"x_max":458,"o":"m 102 407 l 51 433 l 51 585 l 254 483 l 458 585 l 458 433 l 406 407 l 458 381 l 458 229 l 254 331 l 51 229 l 51 381 l 102 407 z "},"Ø":{"ha":712,"x_min":51,"x_max":661,"o":"m 186 814 l 526 814 l 661 746 l 661 68 l 526 0 l 186 0 l 51 68 l 51 746 l 186 814 m 526 416 l 186 246 l 186 136 l 526 136 l 526 416 m 186 398 l 526 568 l 526 678 l 186 678 l 186 398 z "},"Ù":{"ha":712,"x_min":51,"x_max":661,"o":"m 526 814 l 661 814 l 661 68 l 526 0 l 186 0 l 51 68 l 51 814 l 186 814 l 186 136 l 526 136 l 526 814 m 254 1085 l 458 983 l 458 831 l 254 933 l 254 1085 z "},"Ú":{"ha":712,"x_min":51,"x_max":661,"o":"m 526 814 l 661 814 l 661 68 l 526 0 l 186 0 l 51 68 l 51 814 l 186 814 l 186 136 l 526 136 l 526 814 m 458 933 l 254 831 l 254 983 l 458 1085 l 458 933 z "},"Û":{"ha":712,"x_min":51,"x_max":661,"o":"m 526 814 l 661 814 l 661 68 l 526 0 l 186 0 l 51 68 l 51 814 l 186 814 l 186 136 l 526 136 l 526 814 m 526 1000 l 526 848 l 356 933 l 186 848 l 186 1000 l 356 1085 l 526 1000 z "},"Ü":{"ha":712,"x_min":51,"x_max":661,"o":"m 526 814 l 661 814 l 661 68 l 526 0 l 186 0 l 51 68 l 51 814 l 186 814 l 186 136 l 526 136 l 526 814 m 51 882 l 51 1017 l 186 1017 l 186 882 l 51 882 m 526 882 l 526 1017 l 661 1017 l 661 882 l 526 882 z "},"Ý":{"ha":712,"x_min":51,"x_max":661,"o":"m 51 814 l 186 814 l 186 491 l 356 406 l 526 491 l 526 814 l 661 814 l 661 407 l 424 288 l 424 0 l 288 0 l 288 288 l 51 407 l 51 814 m 458 933 l 254 831 l 254 983 l 458 1085 l 458 933 z "},"Þ":{"ha":712,"x_min":51,"x_max":661,"o":"m 526 678 l 661 610 l 661 203 l 526 136 l 186 136 l 186 0 l 51 0 l 51 814 l 186 814 l 186 678 l 526 678 m 526 543 l 186 543 l 186 271 l 526 271 l 526 543 z "},"ß":{"ha":712,"x_min":51,"x_max":661,"o":"m 526 136 l 526 343 l 441 511 l 526 678 l 186 678 l 186 0 l 51 0 l 51 814 l 661 814 l 661 646 l 593 511 l 661 375 l 661 68 l 526 0 l 322 0 l 322 136 l 526 136 z "},"à":{"ha":610,"x_min":51,"x_max":559,"o":"m 186 678 l 559 678 l 559 0 l 186 0 l 51 68 l 51 610 l 186 678 m 424 543 l 186 543 l 186 136 l 424 136 l 424 543 m 203 949 l 407 848 l 407 696 l 203 798 l 203 949 z "},"á":{"ha":610,"x_min":51,"x_max":559,"o":"m 186 678 l 559 678 l 559 0 l 186 0 l 51 68 l 51 610 l 186 678 m 424 543 l 186 543 l 186 136 l 424 136 l 424 543 m 407 798 l 203 696 l 203 848 l 407 949 l 407 798 z "},"â":{"ha":610,"x_min":51,"x_max":559,"o":"m 186 678 l 559 678 l 559 0 l 186 0 l 51 68 l 51 610 l 186 678 m 424 543 l 186 543 l 186 136 l 424 136 l 424 543 m 475 865 l 475 713 l 305 798 l 136 713 l 136 865 l 305 949 l 475 865 z "},"ã":{"ha":610,"x_min":51,"x_max":559,"o":"m 186 678 l 559 678 l 559 0 l 186 0 l 51 68 l 51 610 l 186 678 m 424 543 l 186 543 l 186 136 l 424 136 l 424 543 m 373 864 l 509 932 l 509 780 l 373 712 l 237 780 l 102 712 l 102 864 l 237 932 l 373 864 z "},"ä":{"ha":610,"x_min":51,"x_max":559,"o":"m 186 678 l 559 678 l 559 0 l 186 0 l 51 68 l 51 610 l 186 678 m 424 543 l 186 543 l 186 136 l 424 136 l 424 543 m 51 746 l 51 882 l 186 882 l 186 746 l 51 746 m 424 746 l 424 882 l 559 882 l 559 746 l 424 746 z "},"å":{"ha":610,"x_min":51,"x_max":559,"o":"m 186 678 l 559 678 l 559 0 l 186 0 l 51 68 l 51 610 l 186 678 m 424 543 l 186 543 l 186 136 l 424 136 l 424 543 z "},"æ":{"ha":983,"x_min":51,"x_max":932,"o":"m 797 407 l 797 543 l 559 543 l 559 407 l 797 407 m 186 271 l 186 136 l 424 136 l 424 271 l 186 271 m 559 136 l 932 136 l 932 0 l 559 0 l 492 34 l 424 0 l 186 0 l 51 68 l 51 407 l 424 407 l 424 543 l 51 543 l 51 610 l 186 678 l 424 678 l 492 644 l 559 678 l 797 678 l 932 610 l 932 271 l 559 271 l 559 136 z "},"ç":{"ha":593,"x_min":51,"x_max":559,"o":"m 559 136 l 559 0 l 432 0 l 364 -136 l 212 -136 l 280 0 l 186 0 l 51 68 l 51 610 l 186 678 l 559 678 l 559 543 l 186 543 l 186 136 l 559 136 z "},"è":{"ha":610,"x_min":51,"x_max":559,"o":"m 559 136 l 559 0 l 186 0 l 51 68 l 51 610 l 186 678 l 424 678 l 559 610 l 559 271 l 186 271 l 186 136 l 559 136 m 424 407 l 424 543 l 186 543 l 186 407 l 424 407 m 203 949 l 407 848 l 407 696 l 203 798 l 203 949 z "},"é":{"ha":610,"x_min":51,"x_max":559,"o":"m 559 136 l 559 0 l 186 0 l 51 68 l 51 610 l 186 678 l 424 678 l 559 610 l 559 271 l 186 271 l 186 136 l 559 136 m 424 407 l 424 543 l 186 543 l 186 407 l 424 407 m 407 798 l 203 696 l 203 848 l 407 949 l 407 798 z "},"ê":{"ha":610,"x_min":51,"x_max":559,"o":"m 559 136 l 559 0 l 186 0 l 51 68 l 51 610 l 186 678 l 424 678 l 559 610 l 559 271 l 186 271 l 186 136 l 559 136 m 424 407 l 424 543 l 186 543 l 186 407 l 424 407 m 475 865 l 475 713 l 305 798 l 136 713 l 136 865 l 305 949 l 475 865 z "},"ë":{"ha":610,"x_min":51,"x_max":559,"o":"m 559 136 l 559 0 l 186 0 l 51 68 l 51 610 l 186 678 l 424 678 l 559 610 l 559 271 l 186 271 l 186 136 l 559 136 m 424 407 l 424 543 l 186 543 l 186 407 l 424 407 m 51 746 l 51 882 l 186 882 l 186 746 l 51 746 m 424 746 l 424 882 l 559 882 l 559 746 l 424 746 z "},"ì":{"ha":237,"x_min":17,"x_max":220,"o":"m 51 0 l 51 678 l 186 678 l 186 0 l 51 0 m 17 983 l 220 882 l 220 730 l 17 831 l 17 983 z "},"í":{"ha":237,"x_min":17,"x_max":220,"o":"m 51 0 l 51 678 l 186 678 l 186 0 l 51 0 m 220 814 l 17 713 l 17 865 l 220 966 l 220 814 z "},"î":{"ha":237,"x_min":-51,"x_max":288,"o":"m 51 0 l 51 678 l 186 678 l 186 0 l 51 0 m 288 865 l 288 713 l 119 798 l -51 713 l -51 865 l 119 949 l 288 865 z "},"ï":{"ha":237,"x_min":-58,"x_max":295,"o":"m 51 0 l 51 678 l 186 678 l 186 0 l 51 0 m -58 746 l -58 882 l 78 882 l 78 746 l -58 746 m 159 746 l 159 882 l 295 882 l 295 746 l 159 746 z "},"ð":{"ha":610,"x_min":51,"x_max":559,"o":"m 424 543 l 186 543 l 186 136 l 424 136 l 424 543 m 424 882 l 424 949 l 559 949 l 559 0 l 186 0 l 51 68 l 51 610 l 186 678 l 425 678 l 425 746 l 288 746 l 288 882 l 424 882 z "},"ñ":{"ha":610,"x_min":51,"x_max":559,"o":"m 424 543 l 186 543 l 186 0 l 51 0 l 51 678 l 424 678 l 559 610 l 559 0 l 424 0 l 424 543 m 373 864 l 509 932 l 509 780 l 373 712 l 237 780 l 102 712 l 102 864 l 237 932 l 373 864 z "},"ò":{"ha":610,"x_min":51,"x_max":559,"o":"m 186 678 l 424 678 l 559 610 l 559 68 l 424 0 l 186 0 l 51 68 l 51 610 l 186 678 m 424 543 l 186 543 l 186 136 l 424 136 l 424 543 m 203 949 l 407 848 l 407 696 l 203 798 l 203 949 z "},"ó":{"ha":610,"x_min":51,"x_max":559,"o":"m 186 678 l 424 678 l 559 610 l 559 68 l 424 0 l 186 0 l 51 68 l 51 610 l 186 678 m 424 543 l 186 543 l 186 136 l 424 136 l 424 543 m 407 798 l 203 696 l 203 848 l 407 949 l 407 798 z "},"ô":{"ha":610,"x_min":51,"x_max":559,"o":"m 186 678 l 424 678 l 559 610 l 559 68 l 424 0 l 186 0 l 51 68 l 51 610 l 186 678 m 424 543 l 186 543 l 186 136 l 424 136 l 424 543 m 475 865 l 475 713 l 305 798 l 136 713 l 136 865 l 305 949 l 475 865 z "},"õ":{"ha":610,"x_min":51,"x_max":559,"o":"m 186 678 l 424 678 l 559 610 l 559 68 l 424 0 l 186 0 l 51 68 l 51 610 l 186 678 m 424 543 l 186 543 l 186 136 l 424 136 l 424 543 m 373 864 l 509 932 l 509 780 l 373 712 l 237 780 l 102 712 l 102 864 l 237 932 l 373 864 z "},"ö":{"ha":610,"x_min":51,"x_max":559,"o":"m 186 678 l 424 678 l 559 610 l 559 68 l 424 0 l 186 0 l 51 68 l 51 610 l 186 678 m 424 543 l 186 543 l 186 136 l 424 136 l 424 543 m 51 746 l 51 882 l 186 882 l 186 746 l 51 746 m 424 746 l 424 882 l 559 882 l 559 746 l 424 746 z "},"÷":{"ha":509,"x_min":51,"x_max":458,"o":"m 51 339 l 51 475 l 458 475 l 458 339 l 51 339 m 186 136 l 186 271 l 322 271 l 322 136 l 186 136 m 186 543 l 186 678 l 322 678 l 322 543 l 186 543 z "},"ø":{"ha":610,"x_min":51,"x_max":559,"o":"m 186 678 l 424 678 l 559 610 l 559 68 l 424 0 l 186 0 l 51 68 l 51 610 l 186 678 m 424 322 l 186 203 l 186 136 l 424 136 l 424 322 m 186 355 l 424 474 l 424 543 l 186 543 l 186 355 z "},"ù":{"ha":610,"x_min":51,"x_max":559,"o":"m 424 678 l 559 678 l 559 68 l 424 0 l 186 0 l 51 68 l 51 678 l 186 678 l 186 136 l 424 136 l 424 678 m 203 949 l 407 848 l 407 696 l 203 798 l 203 949 z "},"ú":{"ha":610,"x_min":51,"x_max":559,"o":"m 424 678 l 559 678 l 559 68 l 424 0 l 186 0 l 51 68 l 51 678 l 186 678 l 186 136 l 424 136 l 424 678 m 407 798 l 203 696 l 203 848 l 407 949 l 407 798 z "},"û":{"ha":610,"x_min":51,"x_max":559,"o":"m 424 678 l 559 678 l 559 68 l 424 0 l 186 0 l 51 68 l 51 678 l 186 678 l 186 136 l 424 136 l 424 678 m 475 865 l 475 713 l 305 798 l 136 713 l 136 865 l 305 949 l 475 865 z "},"ü":{"ha":610,"x_min":51,"x_max":560,"o":"m 424 678 l 559 678 l 559 68 l 424 0 l 186 0 l 51 68 l 51 678 l 186 678 l 186 136 l 424 136 l 424 678 m 51 746 l 51 882 l 186 882 l 186 746 l 51 746 m 425 746 l 425 882 l 560 882 l 560 746 l 425 746 z "},"ý":{"ha":610,"x_min":51,"x_max":559,"o":"m 424 678 l 559 678 l 559 -136 l 424 -203 l 51 -203 l 51 -68 l 424 -68 l 424 0 l 186 0 l 51 68 l 51 678 l 186 678 l 186 136 l 424 136 l 424 678 m 407 798 l 203 696 l 203 848 l 407 949 l 407 798 z "},"þ":{"ha":610,"x_min":51,"x_max":559,"o":"m 424 814 l 559 746 l 559 68 l 424 0 l 186 0 l 186 -136 l 51 -136 l 51 949 l 186 949 l 186 814 l 424 814 m 424 678 l 186 678 l 186 136 l 424 136 l 424 678 z "},"ÿ":{"ha":610,"x_min":51,"x_max":559,"o":"m 424 678 l 559 678 l 559 -136 l 424 -203 l 51 -203 l 51 -68 l 424 -68 l 424 0 l 186 0 l 51 68 l 51 678 l 186 678 l 186 136 l 424 136 l 424 678 m 51 746 l 51 882 l 186 882 l 186 746 l 51 746 m 424 746 l 424 882 l 559 882 l 559 746 l 424 746 z "},"ı":{"ha":237,"x_min":51,"x_max":186,"o":"m 51 0 l 51 678 l 186 678 l 186 0 l 51 0 z "},"ˆ":{"ha":712,"x_min":186,"x_max":526,"o":"m 526 1000 l 526 848 l 356 933 l 186 848 l 186 1000 l 356 1085 l 526 1000 z "},"ˇ":{"ha":712,"x_min":186,"x_max":526,"o":"m 356 848 l 186 933 l 186 1085 l 356 1000 l 526 1085 l 526 933 l 356 848 z "},"ˉ":{"ha":610,"x_min":186,"x_max":424,"o":"m 186 746 l 186 882 l 424 882 l 424 746 l 186 746 z "},"˘":{"ha":712,"x_min":186,"x_max":526,"o":"m 420 1032 l 526 1085 l 526 933 l 424 882 l 288 882 l 186 933 l 186 1085 l 292 1032 l 420 1032 z "},"˙":{"ha":712,"x_min":288,"x_max":424,"o":"m 288 882 l 288 1017 l 424 1017 l 424 882 l 288 882 z "},"˚":{"ha":712,"x_min":153,"x_max":559,"o":"m 288 1085 l 424 1085 l 559 1017 l 559 746 l 424 678 l 288 678 l 153 746 l 153 1017 l 288 1085 m 424 949 l 288 949 l 288 814 l 424 814 l 424 949 z "},"˛":{"ha":712,"x_min":526,"x_max":661,"o":"m 526 -203 l 526 -68 l 661 0 l 661 -203 l 526 -203 z "},"˜":{"ha":712,"x_min":153,"x_max":559,"o":"m 424 1000 l 559 1067 l 559 916 l 424 848 l 288 916 l 153 848 l 153 1000 l 288 1067 l 424 1000 z "},"˝":{"ha":712,"x_min":51,"x_max":661,"o":"m 526 882 l 526 1017 l 661 1085 l 661 882 l 526 882 m 51 882 l 51 1017 l 186 1085 l 186 882 l 51 882 z "},"–":{"ha":678,"x_min":34,"x_max":644,"o":"m 34 339 l 34 475 l 644 475 l 644 339 l 34 339 z "},"—":{"ha":882,"x_min":34,"x_max":848,"o":"m 34 339 l 34 475 l 848 475 l 848 339 l 34 339 z "},"‘":{"ha":237,"x_min":51,"x_max":186,"o":"m 51 678 l 51 882 l 186 949 l 186 678 l 51 678 z "},"’":{"ha":237,"x_min":51,"x_max":186,"o":"m 186 949 l 186 746 l 51 678 l 51 949 l 186 949 z "},"‚":{"ha":237,"x_min":51,"x_max":186,"o":"m 186 136 l 186 -68 l 51 -136 l 51 136 l 186 136 z "},"“":{"ha":441,"x_min":51,"x_max":390,"o":"m 51 678 l 51 882 l 186 949 l 186 678 l 51 678 m 254 678 l 254 882 l 390 949 l 390 678 l 254 678 z "},"”":{"ha":441,"x_min":51,"x_max":390,"o":"m 186 949 l 186 746 l 51 678 l 51 949 l 186 949 m 390 949 l 390 746 l 254 678 l 254 949 l 390 949 z "},"„":{"ha":441,"x_min":51,"x_max":390,"o":"m 186 136 l 186 -68 l 51 -136 l 51 136 l 186 136 m 390 136 l 390 -68 l 254 -136 l 254 136 l 390 136 z "},"†":{"ha":678,"x_min":34,"x_max":644,"o":"m 407 441 l 407 0 l 271 0 l 271 441 l 34 441 l 34 576 l 271 576 l 271 814 l 407 814 l 407 576 l 644 576 l 644 441 l 407 441 z "},"‡":{"ha":712,"x_min":51,"x_max":661,"o":"m 288 339 l 288 441 l 51 441 l 51 576 l 288 576 l 288 814 l 424 814 l 424 576 l 661 576 l 661 441 l 424 441 l 424 339 l 661 339 l 661 203 l 424 203 l 424 0 l 288 0 l 288 203 l 51 203 l 51 339 l 288 339 z "},"•":{"ha":509,"x_min":51,"x_max":458,"o":"m 186 610 l 322 610 l 458 543 l 458 271 l 322 203 l 186 203 l 51 271 l 51 543 l 186 610 m 322 475 l 186 475 l 186 339 l 322 339 l 322 475 z "},"…":{"ha":644,"x_min":51,"x_max":593,"o":"m 51 0 l 51 136 l 186 136 l 186 0 l 51 0 m 254 0 l 254 136 l 390 136 l 390 0 l 254 0 m 458 0 l 458 136 l 593 136 l 593 0 l 458 0 z "},"‹":{"ha":288,"x_min":17,"x_max":271,"o":"m 17 407 l 119 610 l 271 610 l 169 407 l 271 203 l 119 203 l 17 407 z "},"›":{"ha":288,"x_min":17,"x_max":271,"o":"m 169 203 l 17 203 l 119 407 l 17 610 l 169 610 l 271 407 l 169 203 z "},"⁄":{"ha":509,"x_min":51,"x_max":458,"o":"m 458 433 l 51 229 l 51 381 l 458 585 l 458 433 z "},"₣":{"ha":678,"x_min":34,"x_max":644,"o":"m 102 746 l 237 814 l 644 814 l 644 678 l 237 678 l 237 576 l 441 576 l 441 441 l 237 441 l 237 305 l 441 305 l 441 170 l 237 170 l 237 0 l 102 0 l 102 170 l 34 170 l 34 305 l 102 305 l 102 746 z "},"₤":{"ha":678,"x_min":34,"x_max":644,"o":"m 102 576 l 102 746 l 237 814 l 644 814 l 644 678 l 237 678 l 237 576 l 441 576 l 441 441 l 237 441 l 237 373 l 441 373 l 441 237 l 237 237 l 237 136 l 644 136 l 644 0 l 102 1 l 102 237 l 34 237 l 34 373 l 102 373 l 102 441 l 34 441 l 34 576 l 102 576 z "},"₧":{"ha":1187,"x_min":51,"x_max":1136,"o":"m 865 407 l 729 475 l 729 746 l 865 814 l 1136 814 l 1136 678 l 865 678 l 865 543 l 1000 543 l 1136 475 l 1136 68 l 1000 0 l 729 0 l 729 136 l 1000 136 l 1000 407 l 865 407 m 661 -68 l 526 -68 l 526 203 l 254 203 l 254 339 l 526 339 l 526 610 l 661 610 l 661 339 l 932 339 l 932 203 l 661 203 l 661 -68 m 322 814 l 458 746 l 458 475 l 322 407 l 186 407 l 186 0 l 51 0 l 51 814 l 322 814 m 322 678 l 186 678 l 186 543 l 322 543 l 322 678 z "},"€":{"ha":678,"x_min":34,"x_max":644,"o":"m 237 373 l 441 373 l 441 237 l 237 237 l 237 136 l 644 136 l 644 0 l 237 0 l 102 68 l 102 237 l 34 237 l 34 373 l 102 373 l 102 441 l 34 441 l 34 576 l 102 576 l 102 746 l 237 814 l 644 814 l 644 678 l 237 678 l 237 576 l 441 576 l 441 441 l 237 441 l 237 373 z "},"№":{"ha":1221,"x_min":51,"x_max":1170,"o":"m 526 678 l 186 678 l 186 0 l 51 0 l 51 814 l 526 814 l 661 746 l 661 0 l 526 0 l 526 678 m 763 136 l 763 271 l 1170 271 l 1170 136 l 763 136 m 899 814 l 1034 814 l 1170 746 l 1170 475 l 1034 407 l 899 407 l 763 475 l 763 746 l 899 814 m 1034 678 l 899 678 l 899 543 l 1034 543 l 1034 678 z "},"™":{"ha":1183,"x_min":51,"x_max":1132,"o":"m 996 678 l 829 594 l 661 678 l 661 305 l 526 305 l 526 814 l 693 814 l 829 746 l 964 814 l 1132 814 l 1132 305 l 996 305 l 996 678 m 322 678 l 322 305 l 186 305 l 186 678 l 51 678 l 51 814 l 458 814 l 458 678 l 322 678 z "},"∂":{"ha":712,"x_min":51,"x_max":661,"o":"m 661 68 l 526 0 l 186 0 l 51 68 l 51 475 l 186 543 l 526 543 l 526 678 l 51 678 l 51 814 l 526 814 l 661 746 l 661 68 m 526 407 l 186 407 l 186 136 l 526 136 l 526 407 z "},"∆":{"ha":678,"x_min":34,"x_max":644,"o":"m 463 136 l 339 562 l 215 136 l 463 136 m 34 0 l 271 814 l 407 814 l 644 0 l 34 0 z "},"∏":{"ha":712,"x_min":51,"x_max":661,"o":"m 526 678 l 186 678 l 186 0 l 51 0 l 51 814 l 661 814 l 661 0 l 526 0 l 526 678 z "},"∑":{"ha":661,"x_min":17,"x_max":627,"o":"m 627 814 l 627 678 l 237 678 l 372 407 l 237 136 l 627 136 l 627 0 l 17 0 l 220 407 l 17 814 l 627 814 z "},"−":{"ha":475,"x_min":34,"x_max":441,"o":"m 34 339 l 34 475 l 441 475 l 441 339 l 34 339 z "},"√":{"ha":237,"x_min":-85,"x_max":322,"o":"m 51 -271 l -85 -203 l -85 -136 l 51 -136 l 51 1085 l 322 1085 l 322 1017 l 186 949 l 186 -271 l 51 -271 z "},"∞":{"ha":1051,"x_min":51,"x_max":1000,"o":"m 593 543 l 593 271 l 865 271 l 865 543 l 593 543 m 458 271 l 458 543 l 186 543 l 186 271 l 458 271 m 593 136 l 526 170 l 458 136 l 186 136 l 51 203 l 51 610 l 186 678 l 458 678 l 526 644 l 593 678 l 865 678 l 1000 610 l 1000 203 l 865 136 l 593 136 z "},"∫":{"ha":237,"x_min":-85,"x_max":322,"o":"m -85 -271 l -85 -136 l 51 -136 l 51 1085 l 322 1085 l 322 949 l 186 949 l 186 -271 l -85 -271 z "},"≈":{"ha":509,"x_min":51,"x_max":458,"o":"m 322 336 l 458 404 l 458 252 l 322 184 l 186 252 l 51 184 l 51 336 l 186 404 l 322 336 m 322 563 l 458 631 l 458 479 l 322 411 l 186 479 l 51 411 l 51 563 l 186 631 l 322 563 z "},"≤":{"ha":475,"x_min":34,"x_max":441,"o":"m 441 594 l 201 475 l 441 355 l 441 203 l 34 407 l 34 543 l 441 746 l 441 594 m 34 0 l 34 136 l 441 136 l 441 0 l 34 0 z "},"≥":{"ha":475,"x_min":34,"x_max":441,"o":"m 34 746 l 441 543 l 441 407 l 34 203 l 34 355 l 273 475 l 34 594 l 34 746 m 34 0 l 34 136 l 441 136 l 441 0 l 34 0 z "},"":{"ha":475,"x_min":51,"x_max":424,"o":"m 186 271 l 186 -170 l 51 -170 l 51 746 l 186 814 l 322 814 l 322 678 l 186 678 l 186 407 l 424 407 l 424 0 l 288 0 l 288 271 l 186 271 m 288 475 l 288 610 l 424 610 l 424 475 l 288 475 z "},"":{"ha":576,"x_min":51,"x_max":526,"o":"m 390 678 l 186 678 l 186 407 l 322 407 l 322 271 l 186 271 l 186 -170 l 51 -170 l 51 746 l 186 814 l 526 814 l 526 0 l 390 0 l 390 678 z "},"ȷ":{"ha":237,"x_min":51,"x_max":186,"o":"m 51 678 l 186 678 l 186 -102 l 51 -170 l 51 678 z "},"ʻ":{"ha":610,"x_min":237,"x_max":373,"o":"m 237 746 l 237 882 l 373 949 l 373 746 l 237 746 z "},"ʼ":{"ha":237,"x_min":51,"x_max":186,"o":"m 186 949 l 186 746 l 51 678 l 51 949 l 186 949 z "},"ˊ":{"ha":712,"x_min":254,"x_max":458,"o":"m 458 933 l 254 831 l 254 983 l 458 1085 l 458 933 z "},"ˋ":{"ha":712,"x_min":254,"x_max":458,"o":"m 254 1085 l 458 983 l 458 831 l 254 933 l 254 1085 z "},"ˍ":{"ha":610,"x_min":51,"x_max":559,"o":"m 51 -203 l 51 -68 l 559 -68 l 559 -203 l 51 -203 z "},"˷":{"ha":712,"x_min":153,"x_max":559,"o":"m 424 -119 l 559 -52 l 559 -203 l 424 -271 l 288 -203 l 153 -271 l 153 -119 l 288 -52 l 424 -119 z "},"̀":{"ha":712,"x_min":254,"x_max":458,"o":"m 254 949 l 458 848 l 458 696 l 254 798 l 254 949 z "},"́":{"ha":712,"x_min":254,"x_max":458,"o":"m 458 798 l 254 696 l 254 848 l 458 949 l 458 798 z "},"̂":{"ha":712,"x_min":237,"x_max":475,"o":"m 475 865 l 475 713 l 356 772 l 237 713 l 237 865 l 356 924 l 475 865 z "},"̃":{"ha":610,"x_min":153,"x_max":458,"o":"m 356 864 l 458 915 l 458 763 l 356 712 l 254 763 l 153 712 l 153 864 l 254 915 l 356 864 z "},"̄":{"ha":712,"x_min":186,"x_max":526,"o":"m 186 882 l 186 1017 l 526 1017 l 526 882 l 186 882 z "},"̅":{"ha":712,"x_min":51,"x_max":661,"o":"m 51 -203 l 51 -68 l 661 -68 l 661 -203 l 51 -203 z "},"̆":{"ha":610,"x_min":186,"x_max":424,"o":"m 352 888 l 424 924 l 424 772 l 356 739 l 254 739 l 186 772 l 186 924 l 258 888 l 352 888 z "},"̇":{"ha":610,"x_min":237,"x_max":373,"o":"m 237 746 l 237 882 l 373 882 l 373 746 l 237 746 z "},"̈":{"ha":271,"x_min":-58,"x_max":295,"o":"m -58 882 l -58 1017 l 78 1017 l 78 882 l -58 882 m 159 882 l 159 1017 l 295 1017 l 295 882 l 159 882 z "},"̐":{"ha":712,"x_min":186,"x_max":526,"o":"m 424 1034 l 526 1085 l 526 933 l 424 882 l 288 882 l 186 933 l 186 1085 l 288 1034 l 288 1085 l 424 1085 l 424 1034 z "},"̕":{"ha":848,"x_min":661,"x_max":797,"o":"m 797 814 l 797 610 l 661 543 l 661 814 l 797 814 z "},"̣":{"ha":712,"x_min":288,"x_max":424,"o":"m 288 -203 l 288 -68 l 424 -68 l 424 -203 l 288 -203 z "},"̤":{"ha":712,"x_min":51,"x_max":661,"o":"m 51 -203 l 51 -68 l 186 -68 l 186 -203 l 51 -203 m 526 -203 l 526 -68 l 661 -68 l 661 -203 l 526 -203 z "},"̥":{"ha":712,"x_min":153,"x_max":559,"o":"m 288 136 l 424 136 l 559 68 l 559 -203 l 424 -271 l 288 -271 l 153 -203 l 153 68 l 288 136 m 424 0 l 288 0 l 288 -136 l 424 -136 l 424 0 z "},"̦":{"ha":712,"x_min":288,"x_max":424,"o":"m 424 -68 l 424 -203 l 288 -271 l 288 -68 l 424 -68 z "},"Ā":{"ha":712,"x_min":51,"x_max":661,"o":"m 661 0 l 526 0 l 526 203 l 186 203 l 186 0 l 51 0 l 51 746 l 186 814 l 526 814 l 661 746 l 661 0 m 526 678 l 186 678 l 186 339 l 526 339 l 526 678 m 186 882 l 186 1017 l 526 1017 l 526 882 l 186 882 z "},"ā":{"ha":610,"x_min":51,"x_max":559,"o":"m 186 678 l 559 678 l 559 0 l 186 0 l 51 68 l 51 610 l 186 678 m 424 543 l 186 543 l 186 136 l 424 136 l 424 543 m 186 746 l 186 882 l 424 882 l 424 746 l 186 746 z "},"Ă":{"ha":712,"x_min":51,"x_max":661,"o":"m 661 0 l 526 0 l 526 203 l 186 203 l 186 0 l 51 0 l 51 746 l 186 814 l 526 814 l 661 746 l 661 0 m 526 678 l 186 678 l 186 339 l 526 339 l 526 678 m 420 1032 l 526 1085 l 526 933 l 424 882 l 288 882 l 186 933 l 186 1085 l 292 1032 l 420 1032 z "},"ă":{"ha":610,"x_min":51,"x_max":559,"o":"m 186 678 l 559 678 l 559 0 l 186 0 l 51 68 l 51 610 l 186 678 m 424 543 l 186 543 l 186 136 l 424 136 l 424 543 m 352 888 l 424 924 l 424 772 l 356 739 l 254 739 l 186 772 l 186 924 l 258 888 l 352 888 z "},"Ą":{"ha":712,"x_min":51,"x_max":661,"o":"m 661 0 l 593 -136 l 458 -136 l 526 0 l 526 203 l 186 203 l 186 0 l 51 0 l 51 746 l 186 814 l 526 814 l 661 746 l 661 0 m 526 678 l 186 678 l 186 339 l 526 339 l 526 678 z "},"ą":{"ha":610,"x_min":51,"x_max":559,"o":"m 424 543 l 186 543 l 186 136 l 424 136 l 424 543 m 559 0 l 492 -136 l 356 -136 l 424 0 l 186 0 l 51 68 l 51 610 l 186 678 l 559 678 l 559 0 z "},"Ć":{"ha":661,"x_min":51,"x_max":627,"o":"m 627 136 l 627 0 l 186 0 l 51 68 l 51 746 l 186 814 l 627 814 l 627 678 l 186 678 l 186 136 l 627 136 m 458 933 l 254 831 l 254 983 l 458 1085 l 458 933 z "},"ć":{"ha":593,"x_min":51,"x_max":559,"o":"m 559 136 l 559 0 l 186 0 l 51 68 l 51 610 l 186 678 l 559 678 l 559 543 l 186 543 l 186 136 l 559 136 m 424 798 l 220 696 l 220 848 l 424 949 l 424 798 z "},"Ĉ":{"ha":661,"x_min":51,"x_max":627,"o":"m 627 136 l 627 0 l 186 0 l 51 68 l 51 746 l 186 814 l 627 814 l 627 678 l 186 678 l 186 136 l 627 136 m 526 1000 l 526 848 l 356 933 l 186 848 l 186 1000 l 356 1085 l 526 1000 z "},"ĉ":{"ha":593,"x_min":51,"x_max":559,"o":"m 559 136 l 559 0 l 186 0 l 51 68 l 51 610 l 186 678 l 559 678 l 559 543 l 186 543 l 186 136 l 559 136 m 441 865 l 441 713 l 322 772 l 203 713 l 203 865 l 322 924 l 441 865 z "},"Ċ":{"ha":661,"x_min":51,"x_max":627,"o":"m 627 136 l 627 0 l 186 0 l 51 68 l 51 746 l 186 814 l 627 814 l 627 678 l 186 678 l 186 136 l 627 136 m 288 882 l 288 1017 l 424 1017 l 424 882 l 288 882 z "},"ċ":{"ha":593,"x_min":51,"x_max":559,"o":"m 559 136 l 559 0 l 186 0 l 51 68 l 51 610 l 186 678 l 559 678 l 559 543 l 186 543 l 186 136 l 559 136 m 254 746 l 254 882 l 390 882 l 390 746 l 254 746 z "},"Č":{"ha":661,"x_min":51,"x_max":627,"o":"m 627 136 l 627 0 l 186 0 l 51 68 l 51 746 l 186 814 l 627 814 l 627 678 l 186 678 l 186 136 l 627 136 m 356 848 l 186 933 l 186 1085 l 356 1000 l 526 1085 l 526 933 l 356 848 z "},"č":{"ha":593,"x_min":51,"x_max":559,"o":"m 559 136 l 559 0 l 186 0 l 51 68 l 51 610 l 186 678 l 559 678 l 559 543 l 186 543 l 186 136 l 559 136 m 322 713 l 203 772 l 203 924 l 322 865 l 441 924 l 441 772 l 322 713 z "},"Ď":{"ha":712,"x_min":51,"x_max":661,"o":"m 186 678 l 186 136 l 390 136 l 526 203 l 526 610 l 390 678 l 186 678 m 51 0 l 51 814 l 422 814 l 661 694 l 661 119 l 422 0 l 51 0 m 356 848 l 186 933 l 186 1085 l 356 1000 l 526 1085 l 526 933 l 356 848 z "},"ď":{"ha":797,"x_min":51,"x_max":763,"o":"m 186 678 l 425 678 l 424 814 l 559 814 l 559 0 l 186 0 l 51 68 l 51 610 l 186 678 m 424 543 l 186 543 l 186 136 l 424 136 l 424 543 m 763 814 l 763 610 l 627 543 l 627 814 l 763 814 z "},"Đ":{"ha":712,"x_min":51,"x_max":661,"o":"m 526 814 l 661 746 l 661 68 l 526 0 l 51 0 l 51 814 l 526 814 m 186 339 l 186 136 l 526 136 l 526 678 l 186 678 l 186 475 l 356 475 l 356 339 l 186 339 z "},"đ":{"ha":610,"x_min":51,"x_max":559,"o":"m 424 543 l 186 543 l 186 136 l 424 136 l 424 543 m 424 882 l 424 949 l 559 949 l 559 0 l 186 0 l 51 68 l 51 610 l 186 678 l 425 678 l 425 746 l 288 746 l 288 882 l 424 882 z "},"Ē":{"ha":695,"x_min":51,"x_max":661,"o":"m 661 136 l 661 0 l 51 0 l 51 814 l 661 814 l 661 678 l 186 678 l 186 543 l 458 543 l 458 407 l 186 407 l 186 136 l 661 136 m 186 882 l 186 1017 l 526 1017 l 526 882 l 186 882 z "},"ē":{"ha":610,"x_min":51,"x_max":559,"o":"m 559 136 l 559 0 l 186 0 l 51 68 l 51 610 l 186 678 l 424 678 l 559 610 l 559 271 l 186 271 l 186 136 l 559 136 m 424 407 l 424 543 l 186 543 l 186 407 l 424 407 m 186 746 l 186 882 l 424 882 l 424 746 l 186 746 z "},"Ĕ":{"ha":695,"x_min":51,"x_max":661,"o":"m 661 136 l 661 0 l 51 0 l 51 814 l 661 814 l 661 678 l 186 678 l 186 543 l 458 543 l 458 407 l 186 407 l 186 136 l 661 136 m 420 1032 l 526 1085 l 526 933 l 424 882 l 288 882 l 186 933 l 186 1085 l 292 1032 l 420 1032 z "},"ĕ":{"ha":610,"x_min":51,"x_max":559,"o":"m 559 136 l 559 0 l 186 0 l 51 68 l 51 610 l 186 678 l 424 678 l 559 610 l 559 271 l 186 271 l 186 136 l 559 136 m 424 407 l 424 543 l 186 543 l 186 407 l 424 407 m 352 888 l 424 924 l 424 772 l 356 739 l 254 739 l 186 772 l 186 924 l 258 888 l 352 888 z "},"Ė":{"ha":695,"x_min":51,"x_max":661,"o":"m 661 136 l 661 0 l 51 0 l 51 814 l 661 814 l 661 678 l 186 678 l 186 543 l 458 543 l 458 407 l 186 407 l 186 136 l 661 136 m 288 882 l 288 1017 l 424 1017 l 424 882 l 288 882 z "},"ė":{"ha":610,"x_min":51,"x_max":559,"o":"m 559 136 l 559 0 l 186 0 l 51 68 l 51 610 l 186 678 l 424 678 l 559 610 l 559 271 l 186 271 l 186 136 l 559 136 m 424 407 l 424 543 l 186 543 l 186 407 l 424 407 m 237 746 l 237 882 l 373 882 l 373 746 l 237 746 z "},"Ę":{"ha":695,"x_min":51,"x_max":661,"o":"m 661 136 l 661 0 l 593 -136 l 458 -136 l 526 0 l 51 0 l 51 814 l 661 814 l 661 678 l 186 678 l 186 543 l 458 543 l 458 407 l 186 407 l 186 136 l 661 136 z "},"ę":{"ha":610,"x_min":51,"x_max":559,"o":"m 424 407 l 424 543 l 186 543 l 186 407 l 424 407 m 186 0 l 51 68 l 51 610 l 186 678 l 424 678 l 559 610 l 559 271 l 186 271 l 186 136 l 559 136 l 559 0 l 492 -136 l 356 -136 l 424 0 l 186 0 z "},"Ě":{"ha":695,"x_min":51,"x_max":661,"o":"m 661 136 l 661 0 l 51 0 l 51 814 l 661 814 l 661 678 l 186 678 l 186 543 l 458 543 l 458 407 l 186 407 l 186 136 l 661 136 m 356 848 l 186 933 l 186 1085 l 356 1000 l 526 1085 l 526 933 l 356 848 z "},"ě":{"ha":610,"x_min":51,"x_max":559,"o":"m 559 136 l 559 0 l 186 0 l 51 68 l 51 610 l 186 678 l 424 678 l 559 610 l 559 271 l 186 271 l 186 136 l 559 136 m 424 407 l 424 543 l 186 543 l 186 407 l 424 407 m 305 713 l 186 772 l 186 924 l 305 865 l 424 924 l 424 772 l 305 713 z "},"Ĝ":{"ha":712,"x_min":51,"x_max":661,"o":"m 526 136 l 526 407 l 661 407 l 661 0 l 186 0 l 51 68 l 51 746 l 186 814 l 661 814 l 661 678 l 186 678 l 186 136 l 526 136 m 526 1000 l 526 848 l 356 933 l 186 848 l 186 1000 l 356 1085 l 526 1000 z "},"ĝ":{"ha":610,"x_min":51,"x_max":559,"o":"m 51 68 l 51 610 l 186 678 l 559 678 l 559 -136 l 424 -203 l 51 -203 l 51 -68 l 424 -68 l 424 0 l 186 0 l 51 68 m 424 543 l 186 543 l 186 136 l 424 136 l 424 543 m 441 865 l 441 713 l 322 772 l 203 713 l 203 865 l 322 924 l 441 865 z "},"Ğ":{"ha":712,"x_min":51,"x_max":661,"o":"m 526 136 l 526 407 l 661 407 l 661 0 l 186 0 l 51 68 l 51 746 l 186 814 l 661 814 l 661 678 l 186 678 l 186 136 l 526 136 m 420 1032 l 526 1085 l 526 933 l 424 882 l 288 882 l 186 933 l 186 1085 l 292 1032 l 420 1032 z "},"ğ":{"ha":610,"x_min":51,"x_max":559,"o":"m 51 68 l 51 610 l 186 678 l 559 678 l 559 -136 l 424 -203 l 51 -203 l 51 -68 l 424 -68 l 424 0 l 186 0 l 51 68 m 424 543 l 186 543 l 186 136 l 424 136 l 424 543 m 369 888 l 441 924 l 441 772 l 373 739 l 271 739 l 203 772 l 203 924 l 275 888 l 369 888 z "},"Ġ":{"ha":712,"x_min":51,"x_max":661,"o":"m 526 136 l 526 407 l 661 407 l 661 0 l 186 0 l 51 68 l 51 746 l 186 814 l 661 814 l 661 678 l 186 678 l 186 136 l 526 136 m 288 882 l 288 1017 l 424 1017 l 424 882 l 288 882 z "},"ġ":{"ha":610,"x_min":51,"x_max":559,"o":"m 51 68 l 51 610 l 186 678 l 559 678 l 559 -136 l 424 -203 l 51 -203 l 51 -68 l 424 -68 l 424 0 l 186 0 l 51 68 m 424 543 l 186 543 l 186 136 l 424 136 l 424 543 m 254 746 l 254 882 l 390 882 l 390 746 l 254 746 z "},"Ģ":{"ha":712,"x_min":51,"x_max":661,"o":"m 526 136 l 526 407 l 661 407 l 661 0 l 186 0 l 51 68 l 51 746 l 186 814 l 661 814 l 661 678 l 186 678 l 186 136 l 526 136 m 424 -68 l 424 -203 l 288 -271 l 288 -68 l 424 -68 z "},"ģ":{"ha":610,"x_min":51,"x_max":559,"o":"m 51 68 l 51 610 l 186 678 l 559 678 l 559 -136 l 424 -203 l 51 -203 l 51 -68 l 424 -68 l 424 0 l 186 0 l 51 68 m 424 543 l 186 543 l 186 136 l 424 136 l 424 543 m 254 746 l 254 882 l 390 949 l 390 746 l 254 746 z "},"Ĥ":{"ha":712,"x_min":51,"x_max":661,"o":"m 51 814 l 186 814 l 186 543 l 526 543 l 526 814 l 661 814 l 661 0 l 526 0 l 526 407 l 186 407 l 186 0 l 51 0 l 51 814 m 526 1000 l 526 848 l 356 933 l 186 848 l 186 1000 l 356 1085 l 526 1000 z "},"ĥ":{"ha":610,"x_min":51,"x_max":559,"o":"m 186 0 l 51 0 l 51 814 l 186 814 l 186 678 l 424 678 l 559 610 l 559 0 l 424 0 l 424 543 l 186 543 l 186 0 m 475 865 l 475 713 l 356 772 l 237 713 l 237 865 l 356 924 l 475 865 z "},"Ħ":{"ha":712,"x_min":51,"x_max":661,"o":"m 526 678 l 526 814 l 661 814 l 661 0 l 526 0 l 526 271 l 186 271 l 186 0 l 51 0 l 51 814 l 186 814 l 186 678 l 526 678 m 186 543 l 186 407 l 526 407 l 526 543 l 186 543 z "},"ħ":{"ha":610,"x_min":51,"x_max":559,"o":"m 186 0 l 51 0 l 51 949 l 186 949 l 186 882 l 322 882 l 322 746 l 186 746 l 186 678 l 424 678 l 559 610 l 559 0 l 424 0 l 424 543 l 186 543 l 186 0 z "},"Ĩ":{"ha":237,"x_min":-85,"x_max":322,"o":"m 51 0 l 51 814 l 186 814 l 186 0 l 51 0 m 186 1000 l 322 1067 l 322 916 l 186 848 l 51 916 l -85 848 l -85 1000 l 51 1067 l 186 1000 z "},"ĩ":{"ha":237,"x_min":-34,"x_max":271,"o":"m 51 0 l 51 678 l 186 678 l 186 0 l 51 0 m 170 864 l 271 915 l 271 763 l 170 712 l 68 763 l -34 712 l -34 864 l 68 915 l 170 864 z "},"Ī":{"ha":237,"x_min":-51,"x_max":288,"o":"m 51 0 l 51 814 l 186 814 l 186 0 l 51 0 m -51 882 l -51 1017 l 288 1017 l 288 882 l -51 882 z "},"ī":{"ha":237,"x_min":0,"x_max":237,"o":"m 51 0 l 51 678 l 186 678 l 186 0 l 51 0 m 0 746 l 0 882 l 237 882 l 237 746 l 0 746 z "},"Ĭ":{"ha":237,"x_min":-51,"x_max":288,"o":"m 51 0 l 51 814 l 186 814 l 186 0 l 51 0 m 182 1032 l 288 1085 l 288 933 l 186 882 l 51 882 l -51 933 l -51 1085 l 55 1032 l 182 1032 z "},"ĭ":{"ha":237,"x_min":0,"x_max":237,"o":"m 51 0 l 51 678 l 186 678 l 186 0 l 51 0 m 165 888 l 237 924 l 237 772 l 170 739 l 68 739 l 0 772 l 0 924 l 72 888 l 165 888 z "},"Į":{"ha":237,"x_min":51,"x_max":186,"o":"m 51 0 l 51 814 l 186 814 l 186 0 l 51 0 m 51 -203 l 51 -68 l 186 0 l 186 -203 l 51 -203 z "},"į":{"ha":237,"x_min":51,"x_max":186,"o":"m 51 746 l 51 882 l 186 882 l 186 746 l 51 746 m 51 0 l 51 678 l 186 678 l 186 0 l 51 0 m 51 -203 l 51 -68 l 186 0 l 186 -203 l 51 -203 z "},"İ":{"ha":237,"x_min":51,"x_max":186,"o":"m 51 0 l 51 814 l 186 814 l 186 0 l 51 0 m 51 882 l 51 1017 l 186 1017 l 186 882 l 51 882 z "},"Ĳ":{"ha":712,"x_min":51,"x_max":661,"o":"m 51 237 l 51 814 l 186 814 l 186 237 l 51 237 m 526 203 l 526 814 l 661 814 l 661 119 l 422 0 l 51 0 l 51 136 l 390 136 l 526 203 z "},"ĳ":{"ha":475,"x_min":51,"x_max":424,"o":"m 288 543 l 186 543 l 186 0 l 51 0 l 51 678 l 424 678 l 424 -68 l 288 -136 l 288 543 m 288 746 l 288 882 l 424 882 l 424 746 l 288 746 m 51 746 l 51 882 l 186 882 l 186 746 l 51 746 z "},"Ĵ":{"ha":627,"x_min":34,"x_max":678,"o":"m 441 203 l 441 814 l 576 814 l 576 119 l 337 0 l 34 0 l 34 136 l 305 136 l 441 203 m 678 1000 l 678 848 l 509 933 l 339 848 l 339 1000 l 509 1085 l 678 1000 z "},"ĵ":{"ha":237,"x_min":0,"x_max":237,"o":"m 51 678 l 186 678 l 186 -102 l 51 -170 l 51 678 m 237 865 l 237 713 l 119 772 l 0 713 l 0 865 l 119 924 l 237 865 z "},"Ķ":{"ha":712,"x_min":51,"x_max":695,"o":"m 186 339 l 186 0 l 51 0 l 51 814 l 186 814 l 186 475 l 374 475 l 543 814 l 695 814 l 492 407 l 695 0 l 543 0 l 374 339 l 186 339 m 424 -68 l 424 -203 l 288 -271 l 288 -68 l 424 -68 z "},"ķ":{"ha":610,"x_min":51,"x_max":593,"o":"m 441 0 l 306 271 l 186 271 l 186 0 l 51 0 l 51 814 l 186 814 l 186 407 l 306 407 l 441 678 l 593 678 l 424 339 l 593 0 l 441 0 m 373 -68 l 373 -203 l 237 -271 l 237 -68 l 373 -68 z "},"ĸ":{"ha":610,"x_min":51,"x_max":593,"o":"m 441 0 l 306 271 l 186 271 l 186 0 l 51 0 l 51 814 l 186 814 l 186 407 l 306 407 l 441 678 l 593 678 l 424 339 l 593 0 l 441 0 z "},"Ĺ":{"ha":661,"x_min":17,"x_max":627,"o":"m 627 136 l 627 0 l 51 0 l 51 814 l 186 814 l 186 136 l 627 136 m 220 933 l 17 831 l 17 983 l 220 1085 l 220 933 z "},"ĺ":{"ha":237,"x_min":17,"x_max":220,"o":"m 51 0 l 51 814 l 186 814 l 186 0 l 51 0 m 220 933 l 17 831 l 17 983 l 220 1085 l 220 933 z "},"Ļ":{"ha":661,"x_min":51,"x_max":627,"o":"m 627 136 l 627 0 l 51 0 l 51 814 l 186 814 l 186 136 l 627 136 m 424 -68 l 424 -203 l 288 -271 l 288 -68 l 424 -68 z "},"ļ":{"ha":237,"x_min":51,"x_max":186,"o":"m 51 0 l 51 814 l 186 814 l 186 0 l 51 0 m 186 -68 l 186 -203 l 51 -271 l 51 -68 l 186 -68 z "},"Ľ":{"ha":661,"x_min":51,"x_max":627,"o":"m 627 136 l 627 0 l 51 0 l 51 814 l 186 814 l 186 136 l 627 136 m 390 814 l 390 610 l 254 543 l 254 814 l 390 814 z "},"ľ":{"ha":424,"x_min":51,"x_max":390,"o":"m 51 0 l 51 814 l 186 814 l 186 0 l 51 0 m 390 814 l 390 610 l 254 543 l 254 814 l 390 814 z "},"Ŀ":{"ha":661,"x_min":51,"x_max":627,"o":"m 627 136 l 627 0 l 51 0 l 51 814 l 186 814 l 186 136 l 627 136 m 288 -203 l 288 -68 l 424 -68 l 424 -203 l 288 -203 z "},"ŀ":{"ha":237,"x_min":51,"x_max":186,"o":"m 51 0 l 51 814 l 186 814 l 186 0 l 51 0 m 51 -203 l 51 -68 l 186 -68 l 186 -203 l 51 -203 z "},"Ł":{"ha":661,"x_min":51,"x_max":627,"o":"m 186 449 l 458 585 l 458 433 l 186 297 l 186 136 l 627 136 l 627 0 l 51 0 l 51 814 l 186 814 l 186 449 z "},"ł":{"ha":441,"x_min":17,"x_max":424,"o":"m 288 433 l 288 0 l 153 0 l 153 365 l 17 297 l 17 449 l 153 517 l 153 814 l 288 814 l 288 585 l 424 652 l 424 500 l 288 433 z "},"Ń":{"ha":712,"x_min":51,"x_max":661,"o":"m 538 0 l 186 545 l 186 0 l 51 0 l 51 814 l 174 814 l 526 269 l 526 814 l 661 814 l 661 0 l 538 0 m 458 933 l 254 831 l 254 983 l 458 1085 l 458 933 z "},"ń":{"ha":610,"x_min":51,"x_max":559,"o":"m 424 543 l 186 543 l 186 0 l 51 0 l 51 678 l 424 678 l 559 610 l 559 0 l 424 0 l 424 543 m 407 798 l 203 696 l 203 848 l 407 949 l 407 798 z "},"Ņ":{"ha":712,"x_min":51,"x_max":661,"o":"m 538 0 l 186 545 l 186 0 l 51 0 l 51 814 l 174 814 l 526 269 l 526 814 l 661 814 l 661 0 l 538 0 m 424 -68 l 424 -203 l 288 -271 l 288 -68 l 424 -68 z "},"ņ":{"ha":610,"x_min":51,"x_max":559,"o":"m 424 543 l 186 543 l 186 0 l 51 0 l 51 678 l 424 678 l 559 610 l 559 0 l 424 0 l 424 543 m 373 -68 l 373 -203 l 237 -271 l 237 -68 l 373 -68 z "},"Ň":{"ha":712,"x_min":51,"x_max":661,"o":"m 538 0 l 186 545 l 186 0 l 51 0 l 51 814 l 174 814 l 526 269 l 526 814 l 661 814 l 661 0 l 538 0 m 356 848 l 186 933 l 186 1085 l 356 1000 l 526 1085 l 526 933 l 356 848 z "},"ň":{"ha":610,"x_min":51,"x_max":559,"o":"m 424 543 l 186 543 l 186 0 l 51 0 l 51 678 l 424 678 l 559 610 l 559 0 l 424 0 l 424 543 m 288 713 l 170 772 l 170 924 l 288 865 l 407 924 l 407 772 l 288 713 z "},"ŉ":{"ha":763,"x_min":34,"x_max":712,"o":"m 170 949 l 170 746 l 34 678 l 34 949 l 170 949 m 576 543 l 339 543 l 339 0 l 203 0 l 203 678 l 576 678 l 712 610 l 712 0 l 576 0 l 576 543 z "},"Ŋ":{"ha":712,"x_min":51,"x_max":661,"o":"m 526 678 l 186 678 l 186 0 l 51 0 l 51 814 l 526 814 l 661 746 l 661 -68 l 526 -136 l 526 678 z "},"ŋ":{"ha":610,"x_min":51,"x_max":559,"o":"m 424 543 l 186 543 l 186 0 l 51 0 l 51 678 l 424 678 l 559 610 l 559 -68 l 424 -136 l 424 543 z "},"Ō":{"ha":712,"x_min":51,"x_max":661,"o":"m 186 814 l 526 814 l 661 746 l 661 68 l 526 0 l 186 0 l 51 68 l 51 746 l 186 814 m 526 678 l 186 678 l 186 136 l 526 136 l 526 678 m 186 882 l 186 1017 l 526 1017 l 526 882 l 186 882 z "},"ō":{"ha":610,"x_min":51,"x_max":559,"o":"m 186 678 l 424 678 l 559 610 l 559 68 l 424 0 l 186 0 l 51 68 l 51 610 l 186 678 m 424 543 l 186 543 l 186 136 l 424 136 l 424 543 m 186 746 l 186 882 l 424 882 l 424 746 l 186 746 z "},"Ŏ":{"ha":712,"x_min":51,"x_max":661,"o":"m 186 814 l 526 814 l 661 746 l 661 68 l 526 0 l 186 0 l 51 68 l 51 746 l 186 814 m 526 678 l 186 678 l 186 136 l 526 136 l 526 678 m 420 1032 l 526 1085 l 526 933 l 424 882 l 288 882 l 186 933 l 186 1085 l 292 1032 l 420 1032 z "},"ŏ":{"ha":610,"x_min":51,"x_max":559,"o":"m 186 678 l 424 678 l 559 610 l 559 68 l 424 0 l 186 0 l 51 68 l 51 610 l 186 678 m 424 543 l 186 543 l 186 136 l 424 136 l 424 543 m 352 888 l 424 924 l 424 772 l 356 739 l 254 739 l 186 772 l 186 924 l 258 888 l 352 888 z "},"Ő":{"ha":712,"x_min":51,"x_max":661,"o":"m 186 814 l 526 814 l 661 746 l 661 68 l 526 0 l 186 0 l 51 68 l 51 746 l 186 814 m 526 678 l 186 678 l 186 136 l 526 136 l 526 678 m 526 882 l 526 1017 l 661 1085 l 661 882 l 526 882 m 51 882 l 51 1017 l 186 1085 l 186 882 l 51 882 z "},"ő":{"ha":610,"x_min":51,"x_max":559,"o":"m 186 678 l 424 678 l 559 610 l 559 68 l 424 0 l 186 0 l 51 68 l 51 610 l 186 678 m 424 543 l 186 543 l 186 136 l 424 136 l 424 543 m 51 746 l 51 882 l 186 949 l 186 746 l 51 746 m 424 746 l 424 882 l 559 949 l 559 746 l 424 746 z "},"Œ":{"ha":1170,"x_min":51,"x_max":1136,"o":"m 526 678 l 186 678 l 186 136 l 526 136 l 526 678 m 186 0 l 51 68 l 51 746 l 186 814 l 1136 814 l 1136 678 l 661 678 l 661 543 l 932 543 l 932 407 l 661 407 l 661 136 l 1136 136 l 1136 0 l 186 0 z "},"œ":{"ha":983,"x_min":51,"x_max":932,"o":"m 424 543 l 186 543 l 186 136 l 424 136 l 424 543 m 797 407 l 797 543 l 559 543 l 559 407 l 797 407 m 186 0 l 51 68 l 51 610 l 186 678 l 797 678 l 932 610 l 932 271 l 559 271 l 559 136 l 932 136 l 932 0 l 186 0 z "},"Ŕ":{"ha":712,"x_min":51,"x_max":661,"o":"m 526 407 l 526 678 l 186 678 l 186 407 l 526 407 m 374 271 l 186 271 l 186 0 l 51 0 l 51 814 l 526 814 l 661 746 l 661 339 l 526 271 l 661 0 l 509 0 l 374 271 m 458 933 l 254 831 l 254 983 l 458 1085 l 458 933 z "},"ŕ":{"ha":543,"x_min":51,"x_max":526,"o":"m 186 543 l 186 0 l 51 0 l 51 610 l 186 678 l 526 678 l 526 543 l 186 543 m 424 798 l 220 696 l 220 848 l 424 949 l 424 798 z "},"Ŗ":{"ha":712,"x_min":51,"x_max":661,"o":"m 526 407 l 526 678 l 186 678 l 186 407 l 526 407 m 374 271 l 186 271 l 186 0 l 51 0 l 51 814 l 526 814 l 661 746 l 661 339 l 526 271 l 661 0 l 509 0 l 374 271 m 424 -68 l 424 -203 l 288 -271 l 288 -68 l 424 -68 z "},"ŗ":{"ha":543,"x_min":51,"x_max":526,"o":"m 186 543 l 186 0 l 51 0 l 51 610 l 186 678 l 526 678 l 526 543 l 186 543 m 186 -68 l 186 -203 l 51 -271 l 51 -68 l 186 -68 z "},"Ř":{"ha":712,"x_min":51,"x_max":661,"o":"m 526 407 l 526 678 l 186 678 l 186 407 l 526 407 m 374 271 l 186 271 l 186 0 l 51 0 l 51 814 l 526 814 l 661 746 l 661 339 l 526 271 l 661 0 l 509 0 l 374 271 m 356 848 l 186 933 l 186 1085 l 356 1000 l 526 1085 l 526 933 l 356 848 z "},"ř":{"ha":543,"x_min":51,"x_max":526,"o":"m 186 543 l 186 0 l 51 0 l 51 610 l 186 678 l 526 678 l 526 543 l 186 543 m 322 713 l 203 772 l 203 924 l 322 865 l 441 924 l 441 772 l 322 713 z "},"Ś":{"ha":712,"x_min":51,"x_max":661,"o":"m 186 678 l 186 568 l 661 330 l 661 68 l 526 0 l 51 0 l 51 136 l 526 136 l 526 246 l 51 484 l 51 746 l 186 814 l 661 814 l 661 678 l 186 678 m 492 933 l 288 831 l 288 983 l 492 1085 l 492 933 z "},"ś":{"ha":610,"x_min":51,"x_max":559,"o":"m 186 543 l 186 475 l 559 288 l 559 68 l 424 0 l 51 0 l 51 136 l 424 136 l 424 204 l 51 391 l 51 610 l 186 678 l 559 678 l 559 543 l 186 543 m 441 798 l 237 696 l 237 848 l 441 949 l 441 798 z "},"Ŝ":{"ha":712,"x_min":51,"x_max":661,"o":"m 186 678 l 186 568 l 661 330 l 661 68 l 526 0 l 51 0 l 51 136 l 526 136 l 526 246 l 51 484 l 51 746 l 186 814 l 661 814 l 661 678 l 186 678 m 526 1000 l 526 848 l 356 933 l 186 848 l 186 1000 l 356 1085 l 526 1000 z "},"ŝ":{"ha":610,"x_min":51,"x_max":559,"o":"m 186 543 l 186 475 l 559 288 l 559 68 l 424 0 l 51 0 l 51 136 l 424 136 l 424 204 l 51 391 l 51 610 l 186 678 l 559 678 l 559 543 l 186 543 m 441 865 l 441 713 l 322 772 l 203 713 l 203 865 l 322 924 l 441 865 z "},"Ş":{"ha":712,"x_min":51,"x_max":661,"o":"m 466 0 l 398 -136 l 246 -136 l 314 0 l 51 0 l 51 136 l 526 136 l 526 246 l 51 484 l 51 746 l 186 814 l 661 814 l 661 678 l 186 678 l 186 568 l 661 330 l 661 68 l 526 0 l 466 0 z "},"ş":{"ha":610,"x_min":51,"x_max":559,"o":"m 51 0 l 51 136 l 424 136 l 424 204 l 51 391 l 51 610 l 186 678 l 559 678 l 559 543 l 186 543 l 186 475 l 559 288 l 559 68 l 424 0 l 398 0 l 330 -136 l 178 -136 l 246 0 l 51 0 z "},"Š":{"ha":712,"x_min":51,"x_max":661,"o":"m 186 678 l 186 568 l 661 330 l 661 68 l 526 0 l 51 0 l 51 136 l 526 136 l 526 246 l 51 484 l 51 746 l 186 814 l 661 814 l 661 678 l 186 678 m 356 848 l 186 933 l 186 1085 l 356 1000 l 526 1085 l 526 933 l 356 848 z "},"š":{"ha":610,"x_min":51,"x_max":559,"o":"m 186 543 l 186 475 l 559 288 l 559 68 l 424 0 l 51 0 l 51 136 l 424 136 l 424 204 l 51 391 l 51 610 l 186 678 l 559 678 l 559 543 l 186 543 m 322 713 l 203 772 l 203 924 l 322 865 l 441 924 l 441 772 l 322 713 z "},"Ţ":{"ha":678,"x_min":34,"x_max":644,"o":"m 407 678 l 407 0 l 271 0 l 271 678 l 34 678 l 34 814 l 644 814 l 644 678 l 407 678 m 407 -68 l 407 -203 l 271 -271 l 271 -68 l 407 -68 z "},"ţ":{"ha":441,"x_min":17,"x_max":424,"o":"m 288 678 l 424 678 l 424 543 l 288 543 l 288 0 l 153 0 l 153 543 l 17 543 l 17 678 l 153 678 l 153 814 l 288 814 l 288 678 m 288 -68 l 288 -203 l 153 -271 l 153 -68 l 288 -68 z "},"Ť":{"ha":678,"x_min":34,"x_max":644,"o":"m 407 678 l 407 0 l 271 0 l 271 678 l 34 678 l 34 814 l 644 814 l 644 678 l 407 678 m 339 849 l 170 934 l 170 1086 l 339 1001 l 509 1086 l 509 934 l 339 849 z "},"ť":{"ha":627,"x_min":17,"x_max":610,"o":"m 288 678 l 424 678 l 424 543 l 288 543 l 288 0 l 153 0 l 153 543 l 17 543 l 17 678 l 153 678 l 153 814 l 288 814 l 288 678 m 610 814 l 610 610 l 475 543 l 475 814 l 610 814 z "},"Ŧ":{"ha":678,"x_min":34,"x_max":644,"o":"m 271 407 l 271 678 l 34 678 l 34 814 l 644 814 l 644 678 l 407 678 l 407 407 l 509 407 l 509 271 l 407 271 l 407 0 l 271 0 l 271 271 l 170 271 l 170 407 l 271 407 z "},"ŧ":{"ha":475,"x_min":34,"x_max":441,"o":"m 170 407 l 170 543 l 34 543 l 34 678 l 170 678 l 170 814 l 305 814 l 305 678 l 441 678 l 441 543 l 305 543 l 305 407 l 441 407 l 441 271 l 305 271 l 305 0 l 170 0 l 170 271 l 34 271 l 34 407 l 170 407 z "},"Ũ":{"ha":712,"x_min":51,"x_max":661,"o":"m 526 814 l 661 814 l 661 68 l 526 0 l 186 0 l 51 68 l 51 814 l 186 814 l 186 136 l 526 136 l 526 814 m 424 1000 l 559 1067 l 559 916 l 424 848 l 288 916 l 153 848 l 153 1000 l 288 1067 l 424 1000 z "},"ũ":{"ha":610,"x_min":51,"x_max":559,"o":"m 424 678 l 559 678 l 559 68 l 424 0 l 186 0 l 51 68 l 51 678 l 186 678 l 186 136 l 424 136 l 424 678 m 356 864 l 458 915 l 458 763 l 356 712 l 254 763 l 153 712 l 153 864 l 254 915 l 356 864 z "},"Ū":{"ha":712,"x_min":51,"x_max":661,"o":"m 526 814 l 661 814 l 661 68 l 526 0 l 186 0 l 51 68 l 51 814 l 186 814 l 186 136 l 526 136 l 526 814 m 186 882 l 186 1017 l 526 1017 l 526 882 l 186 882 z "},"ū":{"ha":610,"x_min":51,"x_max":559,"o":"m 424 678 l 559 678 l 559 68 l 424 0 l 186 0 l 51 68 l 51 678 l 186 678 l 186 136 l 424 136 l 424 678 m 186 746 l 186 882 l 424 882 l 424 746 l 186 746 z "},"Ŭ":{"ha":712,"x_min":51,"x_max":661,"o":"m 526 814 l 661 814 l 661 68 l 526 0 l 186 0 l 51 68 l 51 814 l 186 814 l 186 136 l 526 136 l 526 814 m 420 1032 l 526 1085 l 526 933 l 424 882 l 288 882 l 186 933 l 186 1085 l 292 1032 l 420 1032 z "},"ŭ":{"ha":610,"x_min":51,"x_max":559,"o":"m 424 678 l 559 678 l 559 68 l 424 0 l 186 0 l 51 68 l 51 678 l 186 678 l 186 136 l 424 136 l 424 678 m 352 888 l 424 924 l 424 772 l 356 739 l 254 739 l 186 772 l 186 924 l 258 888 l 352 888 z "},"Ů":{"ha":712,"x_min":51,"x_max":661,"o":"m 526 814 l 661 814 l 661 68 l 526 0 l 186 0 l 51 68 l 51 814 l 186 814 l 186 136 l 526 136 l 526 814 m 288 882 l 288 1017 l 424 1017 l 424 882 l 288 882 z "},"ů":{"ha":610,"x_min":51,"x_max":559,"o":"m 424 678 l 559 678 l 559 68 l 424 0 l 186 0 l 51 68 l 51 678 l 186 678 l 186 136 l 424 136 l 424 678 m 237 746 l 237 882 l 373 882 l 373 746 l 237 746 z "},"Ű":{"ha":712,"x_min":51,"x_max":661,"o":"m 526 814 l 661 814 l 661 68 l 526 0 l 186 0 l 51 68 l 51 814 l 186 814 l 186 136 l 526 136 l 526 814 m 526 882 l 526 1017 l 661 1085 l 661 882 l 526 882 m 51 882 l 51 1017 l 186 1085 l 186 882 l 51 882 z "},"ű":{"ha":610,"x_min":51,"x_max":559,"o":"m 424 678 l 559 678 l 559 68 l 424 0 l 186 0 l 51 68 l 51 678 l 186 678 l 186 136 l 424 136 l 424 678 m 51 746 l 51 882 l 186 949 l 186 746 l 51 746 m 424 746 l 424 882 l 559 949 l 559 746 l 424 746 z "},"Ų":{"ha":712,"x_min":51,"x_max":661,"o":"m 526 814 l 661 814 l 661 68 l 526 0 l 186 0 l 51 68 l 51 814 l 186 814 l 186 136 l 526 136 l 526 814 m 390 -203 l 390 -68 l 526 0 l 526 -203 l 390 -203 z "},"ų":{"ha":610,"x_min":51,"x_max":559,"o":"m 424 678 l 559 678 l 559 68 l 424 0 l 186 0 l 51 68 l 51 678 l 186 678 l 186 136 l 424 136 l 424 678 m 288 -203 l 288 -68 l 424 0 l 424 -203 l 288 -203 z "},"Ŵ":{"ha":916,"x_min":17,"x_max":899,"o":"m 458 492 l 339 0 l 213 0 l 17 814 l 157 814 l 276 317 l 395 814 l 520 814 l 640 317 l 759 814 l 899 814 l 703 0 l 576 0 l 458 492 m 627 1000 l 627 848 l 458 933 l 288 848 l 288 1000 l 458 1085 l 627 1000 z "},"ŵ":{"ha":780,"x_min":17,"x_max":763,"o":"m 390 354 l 305 0 l 179 0 l 17 678 l 157 678 l 242 319 l 328 678 l 452 678 l 538 319 l 623 678 l 763 678 l 601 0 l 475 0 l 390 354 m 509 865 l 509 713 l 390 772 l 271 713 l 271 865 l 390 924 l 509 865 z "},"Ŷ":{"ha":712,"x_min":51,"x_max":661,"o":"m 51 814 l 186 814 l 186 491 l 356 406 l 526 491 l 526 814 l 661 814 l 661 407 l 424 288 l 424 0 l 288 0 l 288 288 l 51 407 l 51 814 m 526 1000 l 526 848 l 356 933 l 186 848 l 186 1000 l 356 1085 l 526 1000 z "},"ŷ":{"ha":610,"x_min":51,"x_max":559,"o":"m 424 678 l 559 678 l 559 -136 l 424 -203 l 51 -203 l 51 -68 l 424 -68 l 424 0 l 186 0 l 51 68 l 51 678 l 186 678 l 186 136 l 424 136 l 424 678 m 424 865 l 424 713 l 305 772 l 186 713 l 186 865 l 305 924 l 424 865 z "},"Ÿ":{"ha":712,"x_min":51,"x_max":661,"o":"m 51 814 l 186 814 l 186 491 l 356 406 l 526 491 l 526 814 l 661 814 l 661 407 l 424 288 l 424 0 l 288 0 l 288 288 l 51 407 l 51 814 m 51 882 l 51 1017 l 186 1017 l 186 882 l 51 882 m 526 882 l 526 1017 l 661 1017 l 661 882 l 526 882 z "},"Ź":{"ha":712,"x_min":51,"x_max":661,"o":"m 51 678 l 51 814 l 661 814 l 661 646 l 204 136 l 661 136 l 661 0 l 51 0 l 51 168 l 508 678 l 51 678 m 492 933 l 288 831 l 288 983 l 492 1085 l 492 933 z "},"ź":{"ha":610,"x_min":51,"x_max":559,"o":"m 51 543 l 51 678 l 559 678 l 559 511 l 207 136 l 559 136 l 559 0 l 51 0 l 51 168 l 404 543 l 51 543 m 441 798 l 237 696 l 237 848 l 441 949 l 441 798 z "},"Ż":{"ha":712,"x_min":51,"x_max":661,"o":"m 51 678 l 51 814 l 661 814 l 661 646 l 204 136 l 661 136 l 661 0 l 51 0 l 51 168 l 508 678 l 51 678 m 288 882 l 288 1017 l 424 1017 l 424 882 l 288 882 z "},"ż":{"ha":610,"x_min":51,"x_max":559,"o":"m 51 543 l 51 678 l 559 678 l 559 511 l 207 136 l 559 136 l 559 0 l 51 0 l 51 168 l 404 543 l 51 543 m 237 746 l 237 882 l 373 882 l 373 746 l 237 746 z "},"Ž":{"ha":712,"x_min":51,"x_max":661,"o":"m 51 678 l 51 814 l 661 814 l 661 646 l 204 136 l 661 136 l 661 0 l 51 0 l 51 168 l 508 678 l 51 678 m 356 848 l 186 933 l 186 1085 l 356 1000 l 526 1085 l 526 933 l 356 848 z "},"ž":{"ha":610,"x_min":51,"x_max":559,"o":"m 51 543 l 51 678 l 559 678 l 559 511 l 207 136 l 559 136 l 559 0 l 51 0 l 51 168 l 404 543 l 51 543 m 305 713 l 186 772 l 186 924 l 305 865 l 424 924 l 424 772 l 305 713 z "},"ſ":{"ha":237,"x_min":51,"x_max":322,"o":"m 186 -136 l 51 -136 l 51 746 l 186 814 l 322 814 l 322 678 l 186 678 l 186 -136 z "},"Ș":{"ha":712,"x_min":51,"x_max":661,"o":"m 186 678 l 186 568 l 661 330 l 661 68 l 526 0 l 51 0 l 51 136 l 526 136 l 526 246 l 51 484 l 51 746 l 186 814 l 661 814 l 661 678 l 186 678 m 424 -68 l 424 -203 l 288 -271 l 288 -68 l 424 -68 z "},"ș":{"ha":610,"x_min":51,"x_max":559,"o":"m 186 543 l 186 475 l 559 288 l 559 68 l 424 0 l 51 0 l 51 136 l 424 136 l 424 204 l 51 391 l 51 610 l 186 678 l 559 678 l 559 543 l 186 543 m 373 -68 l 373 -203 l 237 -271 l 237 -68 l 373 -68 z "},"Ț":{"ha":678,"x_min":34,"x_max":644,"o":"m 407 678 l 407 0 l 271 0 l 271 678 l 34 678 l 34 814 l 644 814 l 644 678 l 407 678 m 407 -68 l 407 -203 l 271 -271 l 271 -68 l 407 -68 z "},"ț":{"ha":441,"x_min":17,"x_max":424,"o":"m 288 678 l 424 678 l 424 543 l 288 543 l 288 0 l 153 0 l 153 543 l 17 543 l 17 678 l 153 678 l 153 814 l 288 814 l 288 678 m 288 -68 l 288 -203 l 153 -271 l 153 -68 l 288 -68 z "},"Ȳ":{"ha":712,"x_min":51,"x_max":661,"o":"m 51 814 l 186 814 l 186 491 l 356 406 l 526 491 l 526 814 l 661 814 l 661 407 l 424 288 l 424 0 l 288 0 l 288 288 l 51 407 l 51 814 m 186 882 l 186 1017 l 526 1017 l 526 882 l 186 882 z "},"ȳ":{"ha":610,"x_min":51,"x_max":559,"o":"m 424 678 l 559 678 l 559 -136 l 424 -203 l 51 -203 l 51 -68 l 424 -68 l 424 0 l 186 0 l 51 68 l 51 678 l 186 678 l 186 136 l 424 136 l 424 678 m 186 746 l 186 882 l 424 882 l 424 746 l 186 746 z "},"Ḍ":{"ha":712,"x_min":51,"x_max":661,"o":"m 186 678 l 186 136 l 390 136 l 526 203 l 526 610 l 390 678 l 186 678 m 51 0 l 51 814 l 422 814 l 661 694 l 661 119 l 422 0 l 51 0 m 288 -203 l 288 -68 l 424 -68 l 424 -203 l 288 -203 z "},"ḍ":{"ha":610,"x_min":51,"x_max":559,"o":"m 186 678 l 425 678 l 424 814 l 559 814 l 559 0 l 186 0 l 51 68 l 51 610 l 186 678 m 424 543 l 186 543 l 186 136 l 424 136 l 424 543 m 237 -203 l 237 -68 l 373 -68 l 373 -203 l 237 -203 z "},"Ḥ":{"ha":712,"x_min":51,"x_max":661,"o":"m 51 814 l 186 814 l 186 543 l 526 543 l 526 814 l 661 814 l 661 0 l 526 0 l 526 407 l 186 407 l 186 0 l 51 0 l 51 814 m 288 -203 l 288 -68 l 424 -68 l 424 -203 l 288 -203 z "},"ḥ":{"ha":610,"x_min":51,"x_max":559,"o":"m 186 0 l 51 0 l 51 814 l 186 814 l 186 678 l 424 678 l 559 610 l 559 0 l 424 0 l 424 543 l 186 543 l 186 0 m 237 -203 l 237 -68 l 373 -68 l 373 -203 l 237 -203 z "},"Ḳ":{"ha":712,"x_min":51,"x_max":695,"o":"m 186 339 l 186 0 l 51 0 l 51 814 l 186 814 l 186 475 l 374 475 l 543 814 l 695 814 l 492 407 l 695 0 l 543 0 l 374 339 l 186 339 m 288 -203 l 288 -68 l 424 -68 l 424 -203 l 288 -203 z "},"ḳ":{"ha":610,"x_min":51,"x_max":593,"o":"m 441 0 l 306 271 l 186 271 l 186 0 l 51 0 l 51 814 l 186 814 l 186 407 l 306 407 l 441 678 l 593 678 l 424 339 l 593 0 l 441 0 m 237 -203 l 237 -68 l 373 -68 l 373 -203 l 237 -203 z "},"Ḷ":{"ha":661,"x_min":51,"x_max":627,"o":"m 627 136 l 627 0 l 51 0 l 51 814 l 186 814 l 186 136 l 627 136 m 288 -203 l 288 -68 l 424 -68 l 424 -203 l 288 -203 z "},"ḷ":{"ha":237,"x_min":51,"x_max":186,"o":"m 51 0 l 51 814 l 186 814 l 186 0 l 51 0 m 51 -203 l 51 -68 l 186 -68 l 186 -203 l 51 -203 z "},"Ḹ":{"ha":661,"x_min":-51,"x_max":627,"o":"m 627 136 l 627 0 l 51 0 l 51 814 l 186 814 l 186 136 l 627 136 m 288 -203 l 288 -68 l 424 -68 l 424 -203 l 288 -203 m -51 882 l -51 1017 l 288 1017 l 288 882 l -51 882 z "},"ḹ":{"ha":237,"x_min":0,"x_max":237,"o":"m 51 0 l 51 814 l 186 814 l 186 0 l 51 0 m 0 882 l 0 1017 l 237 1017 l 237 882 l 0 882 m 51 -203 l 51 -68 l 186 -68 l 186 -203 l 51 -203 z "},"Ḻ":{"ha":661,"x_min":51,"x_max":627,"o":"m 627 136 l 627 0 l 51 0 l 51 814 l 186 814 l 186 136 l 627 136 m 51 -203 l 51 -68 l 627 -68 l 627 -203 l 51 -203 z "},"ḻ":{"ha":237,"x_min":-136,"x_max":373,"o":"m 51 0 l 51 814 l 186 814 l 186 0 l 51 0 m -136 -203 l -136 -68 l 373 -68 l 373 -203 l -136 -203 z "},"Ṁ":{"ha":814,"x_min":51,"x_max":763,"o":"m 407 352 l 637 814 l 763 814 l 763 0 l 627 0 l 627 490 l 407 49 l 186 490 l 186 0 l 51 0 l 51 814 l 176 814 l 407 352 m 339 882 l 339 1017 l 475 1017 l 475 882 l 339 882 z "},"ṁ":{"ha":983,"x_min":51,"x_max":932,"o":"m 424 543 l 186 543 l 186 0 l 51 0 l 51 678 l 797 678 l 932 610 l 932 0 l 797 0 l 797 543 l 559 543 l 559 0 l 424 0 l 424 543 m 424 746 l 424 882 l 559 882 l 559 746 l 424 746 z "},"Ṃ":{"ha":814,"x_min":51,"x_max":763,"o":"m 407 352 l 637 814 l 763 814 l 763 0 l 627 0 l 627 490 l 407 49 l 186 490 l 186 0 l 51 0 l 51 814 l 176 814 l 407 352 m 339 -203 l 339 -68 l 475 -68 l 475 -203 l 339 -203 z "},"ṃ":{"ha":983,"x_min":51,"x_max":932,"o":"m 424 543 l 186 543 l 186 0 l 51 0 l 51 678 l 797 678 l 932 610 l 932 0 l 797 0 l 797 543 l 559 543 l 559 0 l 424 0 l 424 543 m 424 -203 l 424 -68 l 559 -68 l 559 -203 l 424 -203 z "},"Ṅ":{"ha":712,"x_min":51,"x_max":661,"o":"m 538 0 l 186 545 l 186 0 l 51 0 l 51 814 l 174 814 l 526 269 l 526 814 l 661 814 l 661 0 l 538 0 m 288 882 l 288 1017 l 424 1017 l 424 882 l 288 882 z "},"ṅ":{"ha":610,"x_min":51,"x_max":559,"o":"m 424 543 l 186 543 l 186 0 l 51 0 l 51 678 l 424 678 l 559 610 l 559 0 l 424 0 l 424 543 m 237 746 l 237 882 l 373 882 l 373 746 l 237 746 z "},"Ṇ":{"ha":712,"x_min":51,"x_max":661,"o":"m 538 0 l 186 545 l 186 0 l 51 0 l 51 814 l 174 814 l 526 269 l 526 814 l 661 814 l 661 0 l 538 0 m 288 -203 l 288 -68 l 424 -68 l 424 -203 l 288 -203 z "},"ṇ":{"ha":610,"x_min":51,"x_max":559,"o":"m 424 543 l 186 543 l 186 0 l 51 0 l 51 678 l 424 678 l 559 610 l 559 0 l 424 0 l 424 543 m 237 -203 l 237 -68 l 373 -68 l 373 -203 l 237 -203 z "},"Ṉ":{"ha":712,"x_min":51,"x_max":661,"o":"m 538 0 l 186 545 l 186 0 l 51 0 l 51 814 l 174 814 l 526 269 l 526 814 l 661 814 l 661 0 l 538 0 m 51 -203 l 51 -68 l 661 -68 l 661 -203 l 51 -203 z "},"ṉ":{"ha":610,"x_min":51,"x_max":559,"o":"m 424 543 l 186 543 l 186 0 l 51 0 l 51 678 l 424 678 l 559 610 l 559 0 l 424 0 l 424 543 m 51 -203 l 51 -68 l 559 -68 l 559 -203 l 51 -203 z "},"Ṙ":{"ha":712,"x_min":51,"x_max":661,"o":"m 526 407 l 526 678 l 186 678 l 186 407 l 526 407 m 374 271 l 186 271 l 186 0 l 51 0 l 51 814 l 526 814 l 661 746 l 661 339 l 526 271 l 661 0 l 509 0 l 374 271 m 271 882 l 271 1017 l 407 1017 l 407 882 l 271 882 z "},"ṙ":{"ha":543,"x_min":51,"x_max":526,"o":"m 186 543 l 186 0 l 51 0 l 51 610 l 186 678 l 526 678 l 526 543 l 186 543 m 254 746 l 254 882 l 390 882 l 390 746 l 254 746 z "},"Ṛ":{"ha":712,"x_min":51,"x_max":661,"o":"m 526 407 l 526 678 l 186 678 l 186 407 l 526 407 m 374 271 l 186 271 l 186 0 l 51 0 l 51 814 l 526 814 l 661 746 l 661 339 l 526 271 l 661 0 l 509 0 l 374 271 m 288 -203 l 288 -68 l 424 -68 l 424 -203 l 288 -203 z "},"ṛ":{"ha":543,"x_min":51,"x_max":526,"o":"m 186 543 l 186 0 l 51 0 l 51 610 l 186 678 l 526 678 l 526 543 l 186 543 m 51 -203 l 51 -68 l 186 -68 l 186 -203 l 51 -203 z "},"Ṝ":{"ha":712,"x_min":51,"x_max":661,"o":"m 526 407 l 526 678 l 186 678 l 186 407 l 526 407 m 374 271 l 186 271 l 186 0 l 51 0 l 51 814 l 526 814 l 661 746 l 661 339 l 526 271 l 661 0 l 509 0 l 374 271 m 288 -203 l 288 -68 l 424 -68 l 424 -203 l 288 -203 m 186 882 l 186 1017 l 526 1017 l 526 882 l 186 882 z "},"ṝ":{"ha":543,"x_min":51,"x_max":526,"o":"m 186 543 l 186 0 l 51 0 l 51 610 l 186 678 l 526 678 l 526 543 l 186 543 m 186 746 l 186 882 l 424 882 l 424 746 l 186 746 m 51 -203 l 51 -68 l 186 -68 l 186 -203 l 51 -203 z "},"Ṟ":{"ha":712,"x_min":51,"x_max":661,"o":"m 526 407 l 526 678 l 186 678 l 186 407 l 526 407 m 374 271 l 186 271 l 186 0 l 51 0 l 51 814 l 526 814 l 661 746 l 661 339 l 526 271 l 661 0 l 509 0 l 374 271 m 51 -203 l 51 -68 l 661 -68 l 661 -203 l 51 -203 z "},"ṟ":{"ha":559,"x_min":51,"x_max":526,"o":"m 186 543 l 186 0 l 51 0 l 51 610 l 186 678 l 526 678 l 526 543 l 186 543 m 51 -203 l 51 -68 l 526 -68 l 526 -203 l 51 -203 z "},"Ṣ":{"ha":712,"x_min":51,"x_max":661,"o":"m 186 678 l 186 568 l 661 330 l 661 68 l 526 0 l 51 0 l 51 136 l 526 136 l 526 246 l 51 484 l 51 746 l 186 814 l 661 814 l 661 678 l 186 678 m 288 -203 l 288 -68 l 424 -68 l 424 -203 l 288 -203 z "},"ṣ":{"ha":610,"x_min":51,"x_max":559,"o":"m 186 543 l 186 475 l 559 288 l 559 68 l 424 0 l 51 0 l 51 136 l 424 136 l 424 204 l 51 391 l 51 610 l 186 678 l 559 678 l 559 543 l 186 543 m 237 -203 l 237 -68 l 373 -68 l 373 -203 l 237 -203 z "},"Ṭ":{"ha":678,"x_min":34,"x_max":644,"o":"m 407 678 l 407 0 l 271 0 l 271 678 l 34 678 l 34 814 l 644 814 l 644 678 l 407 678 m 271 -203 l 271 -68 l 407 -68 l 407 -203 l 271 -203 z "},"ṭ":{"ha":441,"x_min":17,"x_max":424,"o":"m 288 678 l 424 678 l 424 543 l 288 543 l 288 0 l 153 0 l 153 543 l 17 543 l 17 678 l 153 678 l 153 814 l 288 814 l 288 678 m 153 -203 l 153 -68 l 288 -68 l 288 -203 l 153 -203 z "},"Ẁ":{"ha":916,"x_min":17,"x_max":899,"o":"m 458 492 l 339 0 l 213 0 l 17 814 l 157 814 l 276 317 l 395 814 l 520 814 l 640 317 l 759 814 l 899 814 l 703 0 l 576 0 l 458 492 m 356 1085 l 559 983 l 559 831 l 356 933 l 356 1085 z "},"ẁ":{"ha":780,"x_min":17,"x_max":763,"o":"m 390 354 l 305 0 l 179 0 l 17 678 l 157 678 l 242 319 l 328 678 l 452 678 l 538 319 l 623 678 l 763 678 l 601 0 l 475 0 l 390 354 m 288 949 l 492 848 l 492 696 l 288 798 l 288 949 z "},"Ẃ":{"ha":916,"x_min":17,"x_max":899,"o":"m 458 492 l 339 0 l 213 0 l 17 814 l 157 814 l 276 317 l 395 814 l 520 814 l 640 317 l 759 814 l 899 814 l 703 0 l 576 0 l 458 492 m 559 933 l 356 831 l 356 983 l 559 1085 l 559 933 z "},"ẃ":{"ha":780,"x_min":17,"x_max":763,"o":"m 390 354 l 305 0 l 179 0 l 17 678 l 157 678 l 242 319 l 328 678 l 452 678 l 538 319 l 623 678 l 763 678 l 601 0 l 475 0 l 390 354 m 492 798 l 288 696 l 288 848 l 492 949 l 492 798 z "},"Ẅ":{"ha":916,"x_min":17,"x_max":899,"o":"m 458 492 l 339 0 l 213 0 l 17 814 l 157 814 l 276 317 l 395 814 l 520 814 l 640 317 l 759 814 l 899 814 l 703 0 l 576 0 l 458 492 m 17 882 l 17 1017 l 153 1017 l 153 882 l 17 882 m 763 882 l 763 1017 l 899 1017 l 899 882 l 763 882 z "},"ẅ":{"ha":780,"x_min":17,"x_max":763,"o":"m 390 354 l 305 0 l 179 0 l 17 678 l 157 678 l 242 319 l 328 678 l 452 678 l 538 319 l 623 678 l 763 678 l 601 0 l 475 0 l 390 354 m 17 746 l 17 882 l 153 882 l 153 746 l 17 746 m 627 746 l 627 882 l 763 882 l 763 746 l 627 746 z "},"Ẉ":{"ha":916,"x_min":17,"x_max":899,"o":"m 458 492 l 339 0 l 213 0 l 17 814 l 157 814 l 276 317 l 395 814 l 520 814 l 640 317 l 759 814 l 899 814 l 703 0 l 576 0 l 458 492 m 390 -203 l 390 -68 l 526 -68 l 526 -203 l 390 -203 z "},"ẉ":{"ha":780,"x_min":17,"x_max":763,"o":"m 390 354 l 305 0 l 179 0 l 17 678 l 157 678 l 242 319 l 328 678 l 452 678 l 538 319 l 623 678 l 763 678 l 601 0 l 475 0 l 390 354 m 322 -203 l 322 -68 l 458 -68 l 458 -203 l 322 -203 z "},"Ẓ":{"ha":712,"x_min":51,"x_max":661,"o":"m 51 678 l 51 814 l 661 814 l 661 646 l 204 136 l 661 136 l 661 0 l 51 0 l 51 168 l 508 678 l 51 678 m 288 -203 l 288 -68 l 424 -68 l 424 -203 l 288 -203 z "},"ẓ":{"ha":610,"x_min":51,"x_max":559,"o":"m 51 543 l 51 678 l 559 678 l 559 511 l 207 136 l 559 136 l 559 0 l 51 0 l 51 168 l 404 543 l 51 543 m 237 -203 l 237 -68 l 373 -68 l 373 -203 l 237 -203 z "},"Ẽ":{"ha":695,"x_min":51,"x_max":661,"o":"m 661 136 l 661 0 l 51 0 l 51 814 l 661 814 l 661 678 l 186 678 l 186 543 l 458 543 l 458 407 l 186 407 l 186 136 l 661 136 m 424 1000 l 559 1067 l 559 916 l 424 848 l 288 916 l 153 848 l 153 1000 l 288 1067 l 424 1000 z "},"ẽ":{"ha":610,"x_min":51,"x_max":559,"o":"m 559 136 l 559 0 l 186 0 l 51 68 l 51 610 l 186 678 l 424 678 l 559 610 l 559 271 l 186 271 l 186 136 l 559 136 m 424 407 l 424 543 l 186 543 l 186 407 l 424 407 m 356 864 l 458 915 l 458 763 l 356 712 l 254 763 l 153 712 l 153 864 l 254 915 l 356 864 z "},"Ỳ":{"ha":712,"x_min":51,"x_max":661,"o":"m 51 814 l 186 814 l 186 491 l 356 406 l 526 491 l 526 814 l 661 814 l 661 407 l 424 288 l 424 0 l 288 0 l 288 288 l 51 407 l 51 814 m 254 1085 l 458 983 l 458 831 l 254 933 l 254 1085 z "},"ỳ":{"ha":610,"x_min":51,"x_max":559,"o":"m 424 678 l 559 678 l 559 -136 l 424 -203 l 51 -203 l 51 -68 l 424 -68 l 424 0 l 186 0 l 51 68 l 51 678 l 186 678 l 186 136 l 424 136 l 424 678 m 203 949 l 407 848 l 407 696 l 203 798 l 203 949 z "},"Ỵ":{"ha":712,"x_min":51,"x_max":661,"o":"m 51 814 l 186 814 l 186 491 l 356 406 l 526 491 l 526 814 l 661 814 l 661 407 l 424 288 l 424 0 l 288 0 l 288 288 l 51 407 l 51 814 m 288 -203 l 288 -68 l 424 -68 l 424 -203 l 288 -203 z "},"ỵ":{"ha":610,"x_min":51,"x_max":559,"o":"m 424 678 l 559 678 l 559 -136 l 424 -203 l 51 -203 l 51 -68 l 424 -68 l 424 0 l 186 0 l 51 68 l 51 678 l 186 678 l 186 136 l 424 136 l 424 678 m 237 -407 l 237 -271 l 373 -271 l 373 -407 l 237 -407 z "},"‐":{"ha":373,"x_min":34,"x_max":339,"o":"m 34 339 l 34 475 l 339 475 l 339 339 l 34 339 z "},"‑":{"ha":373,"x_min":34,"x_max":339,"o":"m 34 339 l 34 475 l 339 475 l 339 339 l 34 339 z "},"‒":{"ha":678,"x_min":34,"x_max":644,"o":"m 34 339 l 34 475 l 644 475 l 644 339 l 34 339 z "},"‥":{"ha":475,"x_min":51,"x_max":424,"o":"m 51 0 l 51 136 l 186 136 l 186 0 l 51 0 m 288 0 l 288 136 l 424 136 l 424 0 l 288 0 z "},"‽":{"ha":814,"x_min":51,"x_max":763,"o":"m 288 0 l 288 136 l 424 136 l 424 0 l 288 0 m 51 0 l 51 136 l 186 136 l 186 0 l 51 0 m 627 814 l 763 746 l 763 484 l 424 314 l 424 203 l 288 203 l 288 398 l 627 568 l 627 678 l 186 678 l 186 203 l 51 203 l 51 814 l 627 814 z "},"⁌":{"ha":509,"x_min":51,"x_max":458,"o":"m 186 610 l 322 610 l 458 543 l 458 271 l 322 203 l 186 203 l 51 271 l 51 543 l 186 610 m 322 475 l 186 475 l 186 339 l 322 339 l 322 475 z "},"⁍":{"ha":509,"x_min":51,"x_max":458,"o":"m 322 610 l 186 610 l 51 543 l 51 271 l 186 203 l 322 203 l 458 271 l 458 543 l 322 610 m 186 475 l 322 475 l 322 339 l 186 339 l 186 475 z "},"⁓":{"ha":678,"x_min":51,"x_max":627,"o":"m 394 761 l 522 761 l 627 814 l 627 662 l 526 611 l 390 611 l 284 664 l 157 664 l 51 611 l 51 763 l 153 814 l 288 814 l 394 761 z "},"₯":{"ha":1187,"x_min":51,"x_max":1136,"o":"m 1000 678 l 661 678 l 661 136 l 1000 136 l 1000 678 m 186 136 l 526 136 l 526 678 l 186 678 l 186 136 m 1000 814 l 1136 746 l 1136 68 l 1000 0 l 661 0 l 661 -136 l 526 -136 l 526 0 l 186 0 l 51 68 l 51 746 l 186 814 l 1000 814 z "},"℀":{"ha":509,"x_min":51,"x_max":458,"o":"m 186 1085 l 458 1085 l 458 576 l 186 576 l 51 644 l 51 1017 l 186 1085 m 322 949 l 186 949 l 186 712 l 322 712 l 322 949 m 458 416 l 51 212 l 51 364 l 458 568 l 458 416 m 458 -136 l 458 -271 l 186 -271 l 51 -203 l 51 170 l 186 237 l 458 237 l 458 102 l 186 102 l 186 -136 l 458 -136 z "},"℅":{"ha":509,"x_min":51,"x_max":458,"o":"m 458 416 l 51 212 l 51 364 l 458 568 l 458 416 m 458 712 l 458 576 l 186 576 l 51 644 l 51 1017 l 186 1085 l 458 1085 l 458 949 l 186 949 l 186 712 l 458 712 m 186 237 l 322 237 l 458 170 l 458 -203 l 322 -271 l 186 -271 l 51 -203 l 51 170 l 186 237 m 322 102 l 186 102 l 186 -136 l 322 -136 l 322 102 z "},"℆":{"ha":509,"x_min":51,"x_max":458,"o":"m 458 433 l 51 229 l 51 381 l 458 585 l 458 433 m 458 712 l 458 576 l 186 576 l 51 644 l 51 1017 l 186 1085 l 458 1085 l 458 949 l 186 949 l 186 712 l 458 712 m 322 237 l 458 237 l 458 -203 l 322 -271 l 186 -271 l 51 -203 l 51 237 l 186 237 l 186 -136 l 322 -136 l 322 237 z "},"℮":{"ha":712,"x_min":51,"x_max":661,"o":"m 661 136 l 661 68 l 526 0 l 186 0 l 51 68 l 51 746 l 186 814 l 526 814 l 661 746 l 661 271 l 186 271 l 186 136 l 661 136 m 526 407 l 526 678 l 186 678 l 186 407 l 526 407 z "},"⅓":{"ha":509,"x_min":51,"x_max":458,"o":"m 51 576 l 51 1017 l 186 1085 l 186 576 l 51 576 m 458 500 l 51 297 l 51 449 l 458 652 l 458 500 m 322 -136 l 322 -98 l 272 2 l 322 102 l 51 102 l 51 237 l 458 237 l 458 70 l 424 2 l 458 -66 l 458 -203 l 322 -271 l 51 -271 l 51 -136 l 322 -136 z "},"⅔":{"ha":509,"x_min":51,"x_max":458,"o":"m 51 949 l 51 1085 l 322 1085 l 458 1017 l 458 857 l 186 721 l 186 712 l 458 712 l 458 576 l 51 576 l 51 805 l 322 941 l 322 949 l 51 949 m 458 433 l 51 229 l 51 381 l 458 585 l 458 433 m 322 -136 l 322 -98 l 272 2 l 322 102 l 51 102 l 51 237 l 458 237 l 458 70 l 424 2 l 458 -66 l 458 -203 l 322 -271 l 51 -271 l 51 -136 l 322 -136 z "},"≡":{"ha":475,"x_min":34,"x_max":441,"o":"m 34 339 l 34 475 l 441 475 l 441 339 l 34 339 m 34 68 l 34 203 l 441 203 l 441 68 l 34 68 m 34 610 l 34 746 l 441 746 l 441 610 l 34 610 z "},"ﬀ":{"ha":593,"x_min":51,"x_max":559,"o":"m 288 407 l 288 576 l 424 644 l 559 644 l 559 509 l 424 509 l 424 407 l 559 407 l 559 271 l 424 271 l 424 -170 l 288 -170 l 288 271 l 186 271 l 186 -170 l 51 -170 l 51 746 l 186 814 l 322 814 l 322 678 l 186 678 l 186 407 l 288 407 z "},"ﬃ":{"ha":712,"x_min":51,"x_max":661,"o":"m 288 271 l 186 271 l 186 -170 l 51 -170 l 51 746 l 186 814 l 186 407 l 288 407 l 288 746 l 424 814 l 559 814 l 559 678 l 424 678 l 424 407 l 661 407 l 661 0 l 526 0 l 526 271 l 424 271 l 424 -170 l 288 -170 l 288 271 m 526 475 l 526 610 l 661 610 l 661 475 l 526 475 z "},"ﬄ":{"ha":916,"x_min":51,"x_max":865,"o":"m 390 271 l 186 271 l 186 -170 l 51 -170 l 51 746 l 186 814 l 322 814 l 322 678 l 186 678 l 186 407 l 390 407 l 390 746 l 526 814 l 865 814 l 865 0 l 729 0 l 729 678 l 526 678 l 526 407 l 661 407 l 661 271 l 526 271 l 526 -170 l 390 -170 l 390 271 z "},"ﬅ":{"ha":780,"x_min":17,"x_max":763,"o":"m 492 678 l 288 678 l 288 -170 l 153 -170 l 153 407 l 17 407 l 17 543 l 153 543 l 153 746 l 288 814 l 627 814 l 627 543 l 763 543 l 763 407 l 627 407 l 627 0 l 492 0 l 492 407 l 356 407 l 356 543 l 492 543 l 492 678 z "},"ﬆ":{"ha":916,"x_min":51,"x_max":899,"o":"m 627 678 l 627 814 l 763 814 l 763 678 l 899 678 l 899 543 l 763 543 l 763 0 l 627 0 l 627 543 l 186 543 l 186 475 l 559 288 l 559 68 l 424 0 l 51 0 l 51 136 l 424 136 l 424 204 l 51 391 l 51 610 l 186 678 l 627 678 z "},"̌":{"ha":610,"x_min":186,"x_max":424,"o":"m 305 713 l 186 772 l 186 924 l 305 865 l 424 924 l 424 772 l 305 713 z "},"₪":{"ha":1051,"x_min":51,"x_max":1000,"o":"m 593 678 l 186 678 l 186 0 l 51 0 l 51 814 l 593 814 l 729 746 l 729 271 l 593 271 l 593 678 m 865 814 l 1000 814 l 1000 68 l 865 0 l 322 0 l 322 543 l 458 543 l 458 136 l 865 136 l 865 814 z "},"←":{"ha":695,"x_min":17,"x_max":661,"o":"m 203 339 l 304 136 l 153 136 l 17 407 l 153 678 l 304 678 l 203 475 l 661 475 l 661 339 l 203 339 z "},"↑":{"ha":610,"x_min":34,"x_max":576,"o":"m -441 949 l -237 1050 l -237 899 l -509 763 l -780 899 l -780 1050 l -576 949 l -576 1407 l -441 1407 l -441 949 z "},"→":{"ha":695,"x_min":34,"x_max":678,"o":"m 492 339 l 391 136 l 543 136 l 678 407 l 543 678 l 391 678 l 492 475 l 34 475 l 34 339 l 492 339 z "},"↓":{"ha":610,"x_min":34,"x_max":576,"o":"m 1051 -135 l 848 -237 l 848 -85 l 1119 51 l 1390 -85 l 1390 -237 l 1187 -135 l 1187 -593 l 1051 -593 l 1051 -135 z "},"↔":{"ha":814,"x_min":17,"x_max":797,"o":"m 611 475 l 509 678 l 661 678 l 797 407 l 661 136 l 509 136 l 611 339 l 203 339 l 304 136 l 153 136 l 17 407 l 153 678 l 304 678 l 203 475 l 611 475 z "},"↕":{"ha":610,"x_min":34,"x_max":576,"o":"m 237 611 l 34 509 l 34 661 l 305 797 l 576 661 l 576 509 l 373 611 l 373 203 l 576 304 l 576 153 l 305 17 l 34 153 l 34 304 l 237 203 l 237 611 z "},"↨":{"ha":610,"x_min":34,"x_max":576,"o":"m 237 611 l 34 509 l 34 661 l 305 797 l 576 661 l 576 509 l 373 611 l 373 338 l 576 440 l 576 288 l 305 153 l 34 288 l 34 440 l 237 338 l 237 611 m 34 0 l 34 136 l 576 136 l 576 0 l 34 0 z "}}}
